G04*
G04 #@! TF.GenerationSoftware,Altium Limited,Altium Designer,22.6.1 (34)*
G04*
G04 Layer_Physical_Order=1*
G04 Layer_Color=255*
%FSLAX44Y44*%
%MOMM*%
G71*
G04*
G04 #@! TF.SameCoordinates,A72CB605-F9DB-4195-8002-294397CB98EC*
G04*
G04*
G04 #@! TF.FilePolarity,Positive*
G04*
G01*
G75*
%ADD16C,0.2540*%
%ADD17R,1.0000X0.7000*%
%ADD18R,1.6510X1.5240*%
G04:AMPARAMS|DCode=19|XSize=0.28mm|YSize=1.56mm|CornerRadius=0.07mm|HoleSize=0mm|Usage=FLASHONLY|Rotation=45.000|XOffset=0mm|YOffset=0mm|HoleType=Round|Shape=RoundedRectangle|*
%AMROUNDEDRECTD19*
21,1,0.2800,1.4200,0,0,45.0*
21,1,0.1400,1.5600,0,0,45.0*
1,1,0.1400,0.5515,-0.4526*
1,1,0.1400,0.4526,-0.5515*
1,1,0.1400,-0.5515,0.4526*
1,1,0.1400,-0.4526,0.5515*
%
%ADD19ROUNDEDRECTD19*%
G04:AMPARAMS|DCode=20|XSize=0.28mm|YSize=1.56mm|CornerRadius=0.07mm|HoleSize=0mm|Usage=FLASHONLY|Rotation=135.000|XOffset=0mm|YOffset=0mm|HoleType=Round|Shape=RoundedRectangle|*
%AMROUNDEDRECTD20*
21,1,0.2800,1.4200,0,0,135.0*
21,1,0.1400,1.5600,0,0,135.0*
1,1,0.1400,0.4526,0.5515*
1,1,0.1400,0.5515,0.4526*
1,1,0.1400,-0.4526,-0.5515*
1,1,0.1400,-0.5515,-0.4526*
%
%ADD20ROUNDEDRECTD20*%
%ADD21R,1.3970X1.2700*%
%ADD22R,1.2700X1.3970*%
%ADD23R,1.3500X0.4000*%
%ADD24R,1.4000X1.6000*%
%ADD40R,1.9000X1.9000*%
%ADD41C,0.5080*%
%ADD42C,1.0160*%
%ADD43C,1.9050*%
%ADD44C,1.5000*%
%ADD45R,1.5000X1.5000*%
G04:AMPARAMS|DCode=46|XSize=2mm|YSize=1.2mm|CornerRadius=0.36mm|HoleSize=0mm|Usage=FLASHONLY|Rotation=180.000|XOffset=0mm|YOffset=0mm|HoleType=Round|Shape=RoundedRectangle|*
%AMROUNDEDRECTD46*
21,1,2.0000,0.4800,0,0,180.0*
21,1,1.2800,1.2000,0,0,180.0*
1,1,0.7200,-0.6400,0.2400*
1,1,0.7200,0.6400,0.2400*
1,1,0.7200,0.6400,-0.2400*
1,1,0.7200,-0.6400,-0.2400*
%
%ADD46ROUNDEDRECTD46*%
%ADD47R,1.5000X1.5000*%
%ADD48C,0.5080*%
G36*
X999415Y1046141D02*
Y736939D01*
X994071Y731595D01*
X474049D01*
X443305Y762339D01*
Y772160D01*
Y1029675D01*
X443437Y1029763D01*
X470239Y1056565D01*
X988991D01*
X999415Y1046141D01*
D02*
G37*
%LPC*%
G36*
X544830Y1051440D02*
X544778D01*
X542225Y1050756D01*
X539935Y1049434D01*
X538066Y1047565D01*
X537497Y1046580D01*
X529303D01*
X528734Y1047565D01*
X526865Y1049434D01*
X524575Y1050756D01*
X522022Y1051440D01*
X521970D01*
Y1041400D01*
X520700D01*
Y1040130D01*
X510660D01*
Y1040078D01*
X511344Y1037525D01*
X512666Y1035235D01*
X514535Y1033366D01*
X516815Y1032050D01*
Y1022568D01*
X517111Y1021081D01*
X517953Y1019821D01*
X521796Y1015978D01*
X521310Y1014805D01*
X509609D01*
X499185Y1025229D01*
Y1033900D01*
X502800D01*
Y1039989D01*
X502986Y1041400D01*
X502800Y1042811D01*
Y1048900D01*
X496711D01*
X495300Y1049086D01*
X493889Y1048900D01*
X487800D01*
Y1044769D01*
X458115Y1015085D01*
X456894Y1013493D01*
X456126Y1011639D01*
X455864Y1009650D01*
Y911860D01*
X456050Y910449D01*
Y904360D01*
X462139D01*
X463550Y904174D01*
X483804D01*
Y902335D01*
X484066Y900346D01*
X484834Y898492D01*
X486055Y896900D01*
X518795Y864161D01*
Y862330D01*
X520903D01*
X521302Y862024D01*
X523156Y861256D01*
X525145Y860994D01*
X525780D01*
X527769Y861256D01*
X529623Y862024D01*
X530022Y862330D01*
X532765D01*
Y865631D01*
X533204Y866691D01*
X533466Y868680D01*
X533204Y870669D01*
X532765Y871729D01*
Y875030D01*
X530022D01*
X529623Y875336D01*
X529171Y875523D01*
X499176Y905519D01*
Y913130D01*
X499176Y913130D01*
X498914Y915119D01*
X498146Y916973D01*
X496925Y918565D01*
X496570Y918919D01*
Y921385D01*
X493269D01*
X492209Y921824D01*
X490220Y922086D01*
X488231Y921824D01*
X487171Y921385D01*
X483870D01*
Y919546D01*
X471236D01*
Y1006467D01*
X490242Y1025473D01*
X491415Y1024987D01*
Y1023620D01*
X491711Y1022133D01*
X492553Y1020873D01*
X505253Y1008173D01*
X506513Y1007331D01*
X508000Y1007035D01*
X538405D01*
Y971550D01*
X535305D01*
Y958850D01*
X549275D01*
Y971550D01*
X546175D01*
Y1007035D01*
X575450D01*
X651971Y930515D01*
X646223Y924767D01*
X645381Y923507D01*
X645085Y922020D01*
Y894080D01*
X645160Y893705D01*
Y893322D01*
X645306Y892969D01*
X645381Y892593D01*
X645594Y892275D01*
X645740Y891922D01*
X646011Y891651D01*
X646223Y891333D01*
X646541Y891121D01*
X646812Y890850D01*
X647165Y890704D01*
X647483Y890491D01*
X647859Y890416D01*
X648212Y890270D01*
X648595D01*
X648970Y890195D01*
X649345Y890270D01*
X649728D01*
X650081Y890416D01*
X650457Y890491D01*
X650775Y890704D01*
X651128Y890850D01*
X651399Y891121D01*
X651717Y891333D01*
X651929Y891651D01*
X652200Y891922D01*
X652346Y892275D01*
X652559Y892593D01*
X652634Y892969D01*
X652780Y893322D01*
Y893705D01*
X652855Y894080D01*
Y920411D01*
X657465Y925021D01*
X672151Y910335D01*
X673411Y909493D01*
X674898Y909197D01*
X676384Y909493D01*
X676409Y909509D01*
X678747Y907171D01*
X678887Y907030D01*
X678887D01*
X679423Y906808D01*
X679959Y907030D01*
X679959D01*
X680949Y908020D01*
X682149Y907599D01*
X683043Y907001D01*
X684530Y906705D01*
X687580D01*
X688002Y906283D01*
X689610Y905618D01*
Y910590D01*
X692150D01*
Y905618D01*
X692507Y905766D01*
X693563Y905060D01*
Y893914D01*
X693420Y893568D01*
Y893185D01*
X693345Y892810D01*
X693420Y892435D01*
Y892052D01*
X693566Y891699D01*
X693641Y891323D01*
X693854Y891005D01*
X694000Y890652D01*
X694271Y890381D01*
X694483Y890063D01*
X694801Y889851D01*
X695072Y889580D01*
X695425Y889434D01*
X695743Y889221D01*
X696119Y889146D01*
X696472Y889000D01*
X696855D01*
X697230Y888925D01*
X697605Y889000D01*
X697988D01*
X698341Y889146D01*
X698717Y889221D01*
X699035Y889434D01*
X699388Y889580D01*
X699659Y889851D01*
X699977Y890063D01*
X700195Y890281D01*
X700407Y890599D01*
X700460Y890652D01*
X700488Y890721D01*
X701037Y891541D01*
X701333Y893028D01*
Y905548D01*
X702603Y906074D01*
X713533Y895143D01*
X713851Y894931D01*
X714122Y894660D01*
X714475Y894514D01*
X714793Y894301D01*
X715169Y894226D01*
X715522Y894080D01*
X715905D01*
X716280Y894005D01*
X716655Y894080D01*
X717038D01*
X717391Y894226D01*
X717767Y894301D01*
X718085Y894514D01*
X718438Y894660D01*
X718709Y894931D01*
X719027Y895143D01*
X734793Y910909D01*
X735635Y912169D01*
X735931Y913656D01*
Y934639D01*
X736530Y935039D01*
X737369Y935878D01*
X738567Y936305D01*
X739557Y935315D01*
X740093Y935093D01*
X740629Y935315D01*
X743107Y937793D01*
X743132Y937777D01*
X744327Y937539D01*
X744565Y936344D01*
X744581Y936319D01*
X742243Y933981D01*
X742103Y933841D01*
Y933840D01*
X741881Y933305D01*
X742103Y932769D01*
Y932769D01*
X742243Y932629D01*
X743092Y931779D01*
X743628Y931557D01*
X744164Y931779D01*
X746643Y934258D01*
X746667Y934241D01*
X747863Y934004D01*
X748100Y932808D01*
X748117Y932784D01*
X745779Y930445D01*
X745638Y930305D01*
Y930305D01*
X745416Y929769D01*
X745638Y929234D01*
Y929234D01*
X745778Y929093D01*
X746628Y928244D01*
X747164Y928022D01*
X747700Y928244D01*
X750178Y930722D01*
X750203Y930706D01*
X751398Y930468D01*
X751636Y929273D01*
X751652Y929248D01*
X749314Y926910D01*
X749174Y926770D01*
Y926769D01*
X748952Y926234D01*
X749174Y925698D01*
Y925698D01*
X749314Y925558D01*
X750164Y924708D01*
X750699Y924486D01*
X751235Y924708D01*
X753714Y927187D01*
X753738Y927170D01*
X754934Y926933D01*
X755171Y925737D01*
X755188Y925713D01*
X752850Y923374D01*
X752709Y923234D01*
Y923234D01*
X752487Y922698D01*
X752709Y922163D01*
Y922162D01*
X752849Y922022D01*
X753699Y921173D01*
X754235Y920951D01*
X754771Y921173D01*
X757249Y923651D01*
X757274Y923635D01*
X758469Y923397D01*
X758707Y922202D01*
X758723Y922177D01*
X756385Y919839D01*
X756245Y919698D01*
Y919698D01*
X756023Y919163D01*
X756245Y918627D01*
Y918627D01*
X756385Y918487D01*
X757235Y917637D01*
X757770Y917415D01*
X758306Y917637D01*
X760785Y920116D01*
X760809Y920099D01*
X762005Y919862D01*
X762243Y918666D01*
X762259Y918642D01*
X759921Y916303D01*
X759780Y916163D01*
Y916163D01*
X759558Y915627D01*
X759780Y915092D01*
Y915091D01*
X759921Y914951D01*
X760770Y914101D01*
X761306Y913880D01*
X761842Y914101D01*
X764320Y916580D01*
X764345Y916564D01*
X765540Y916326D01*
X765778Y915131D01*
X765794Y915106D01*
X763456Y912768D01*
X763316Y912627D01*
Y912627D01*
X763094Y912092D01*
X763316Y911556D01*
Y911556D01*
X763456Y911416D01*
X764306Y910566D01*
X764842Y910344D01*
X765377Y910566D01*
X767856Y913045D01*
X767880Y913028D01*
X769076Y912790D01*
X769314Y911595D01*
X769330Y911571D01*
X766992Y909232D01*
X766851Y909092D01*
Y909092D01*
X766629Y908556D01*
X766851Y908021D01*
Y908020D01*
X766992Y907880D01*
X767841Y907030D01*
X768377Y906808D01*
X768913Y907030D01*
X771391Y909509D01*
X771416Y909493D01*
X772903Y909197D01*
X774389Y909493D01*
X775649Y910335D01*
X802500Y937185D01*
X879153D01*
X879371Y936897D01*
X879715Y935915D01*
X879691Y935879D01*
X879420Y935608D01*
X879274Y935255D01*
X879061Y934937D01*
X878986Y934561D01*
X878840Y934208D01*
Y933825D01*
X878765Y933450D01*
X878840Y933075D01*
Y932692D01*
X878986Y932339D01*
X879061Y931963D01*
X879274Y931645D01*
X879420Y931292D01*
X879691Y931021D01*
X879903Y930703D01*
X906705Y903901D01*
Y883920D01*
X907001Y882433D01*
X907843Y881173D01*
X913371Y875646D01*
X913351Y875617D01*
X913055Y874130D01*
Y853440D01*
X913130Y853065D01*
Y852682D01*
X913276Y852329D01*
X913351Y851953D01*
X913564Y851635D01*
X913710Y851282D01*
X913981Y851011D01*
X914193Y850693D01*
X914511Y850481D01*
X914782Y850210D01*
X915135Y850064D01*
X915453Y849851D01*
X915829Y849776D01*
X916182Y849630D01*
X916565D01*
X916940Y849555D01*
X917315Y849630D01*
X917698D01*
X918051Y849776D01*
X918427Y849851D01*
X918745Y850064D01*
X919098Y850210D01*
X919369Y850481D01*
X919687Y850693D01*
X919899Y851011D01*
X920170Y851282D01*
X920316Y851635D01*
X920529Y851953D01*
X920604Y852329D01*
X920750Y852682D01*
Y853065D01*
X920825Y853440D01*
Y871965D01*
X943610D01*
X945097Y872261D01*
X946357Y873103D01*
X946856Y873850D01*
X950360D01*
Y877850D01*
X946856D01*
X946357Y878597D01*
Y879287D01*
X947318Y880350D01*
X950360D01*
Y884350D01*
X946856D01*
X946357Y885097D01*
Y885787D01*
X947318Y886850D01*
X950360D01*
Y890810D01*
X952900D01*
Y894080D01*
X943610D01*
X934320D01*
Y892735D01*
X921239D01*
X920825Y893149D01*
Y909320D01*
X920750Y909695D01*
Y910078D01*
X920604Y910431D01*
X920529Y910807D01*
X920316Y911125D01*
X920170Y911478D01*
X919899Y911749D01*
X919687Y912067D01*
X919369Y912279D01*
X919098Y912550D01*
X918745Y912696D01*
X918427Y912909D01*
X918051Y912984D01*
X917698Y913130D01*
X917315D01*
X916940Y913205D01*
X916565Y913130D01*
X916182D01*
X915829Y912984D01*
X915453Y912909D01*
X915135Y912696D01*
X914782Y912550D01*
X914511Y912279D01*
X914193Y912067D01*
X913981Y911749D01*
X913710Y911478D01*
X913564Y911125D01*
X913351Y910807D01*
X913276Y910431D01*
X913183Y910207D01*
X912592Y909932D01*
X911904Y909746D01*
X911846Y909748D01*
X885678Y935915D01*
X886027Y937026D01*
X886148Y937185D01*
X927100D01*
X928587Y937481D01*
X929847Y938323D01*
X980647Y989123D01*
X981489Y990383D01*
X981785Y991870D01*
Y1034983D01*
X982505Y1035398D01*
X983902Y1036795D01*
X984889Y1038505D01*
X985400Y1040413D01*
Y1042387D01*
X984889Y1044295D01*
X983902Y1046005D01*
X982505Y1047402D01*
X980795Y1048389D01*
X978887Y1048900D01*
X976913D01*
X975005Y1048389D01*
X973295Y1047402D01*
X971898Y1046005D01*
X970911Y1044295D01*
X970400Y1042387D01*
Y1040413D01*
X970911Y1038505D01*
X971898Y1036795D01*
X973295Y1035398D01*
X974015Y1034983D01*
Y993479D01*
X925491Y944955D01*
X879718D01*
X879232Y946128D01*
X955247Y1022143D01*
X956089Y1023403D01*
X956385Y1024890D01*
Y1034983D01*
X957105Y1035398D01*
X958502Y1036795D01*
X959489Y1038505D01*
X960000Y1040413D01*
Y1042387D01*
X959489Y1044295D01*
X958502Y1046005D01*
X957105Y1047402D01*
X955395Y1048389D01*
X953487Y1048900D01*
X951513D01*
X949605Y1048389D01*
X947895Y1047402D01*
X946498Y1046005D01*
X945511Y1044295D01*
X945000Y1042387D01*
Y1040413D01*
X945511Y1038505D01*
X946498Y1036795D01*
X947895Y1035398D01*
X948615Y1034983D01*
Y1026499D01*
X872151Y950035D01*
X867018D01*
X866532Y951208D01*
X929847Y1014523D01*
X930689Y1015783D01*
X930985Y1017270D01*
Y1034983D01*
X931705Y1035398D01*
X933102Y1036795D01*
X934089Y1038505D01*
X934600Y1040413D01*
Y1042387D01*
X934089Y1044295D01*
X933102Y1046005D01*
X931705Y1047402D01*
X929995Y1048389D01*
X928087Y1048900D01*
X926113D01*
X924205Y1048389D01*
X922495Y1047402D01*
X921098Y1046005D01*
X920111Y1044295D01*
X919600Y1042387D01*
Y1040413D01*
X920111Y1038505D01*
X921098Y1036795D01*
X922495Y1035398D01*
X923215Y1034983D01*
Y1018879D01*
X859451Y955115D01*
X853048D01*
X852562Y956288D01*
X904447Y1008173D01*
X905289Y1009434D01*
X905585Y1010920D01*
Y1034983D01*
X906305Y1035398D01*
X907701Y1036795D01*
X908689Y1038505D01*
X909200Y1040413D01*
Y1042387D01*
X908689Y1044295D01*
X907701Y1046005D01*
X906305Y1047402D01*
X904595Y1048389D01*
X902688Y1048900D01*
X900713D01*
X898805Y1048389D01*
X897095Y1047402D01*
X895699Y1046005D01*
X894711Y1044295D01*
X894200Y1042387D01*
Y1040413D01*
X894711Y1038505D01*
X895699Y1036795D01*
X897095Y1035398D01*
X897815Y1034983D01*
Y1012529D01*
X845481Y960195D01*
X844158D01*
X843672Y961368D01*
X879047Y996743D01*
X879889Y998003D01*
X880185Y999490D01*
Y1034983D01*
X880905Y1035398D01*
X882301Y1036795D01*
X883289Y1038505D01*
X883800Y1040413D01*
Y1042387D01*
X883289Y1044295D01*
X882301Y1046005D01*
X880905Y1047402D01*
X879195Y1048389D01*
X877287Y1048900D01*
X875313D01*
X873405Y1048389D01*
X871695Y1047402D01*
X870298Y1046005D01*
X869311Y1044295D01*
X868800Y1042387D01*
Y1040413D01*
X869311Y1038505D01*
X870298Y1036795D01*
X871695Y1035398D01*
X872415Y1034983D01*
Y1001099D01*
X837861Y966545D01*
X836538D01*
X836052Y967718D01*
X853647Y985313D01*
X854489Y986573D01*
X854785Y988060D01*
Y1034983D01*
X855505Y1035398D01*
X856901Y1036795D01*
X857889Y1038505D01*
X858400Y1040413D01*
Y1042387D01*
X857889Y1044295D01*
X856901Y1046005D01*
X855505Y1047402D01*
X853795Y1048389D01*
X851887Y1048900D01*
X849913D01*
X848005Y1048389D01*
X846295Y1047402D01*
X844899Y1046005D01*
X843911Y1044295D01*
X843400Y1042387D01*
Y1040413D01*
X843911Y1038505D01*
X844899Y1036795D01*
X846295Y1035398D01*
X847015Y1034983D01*
Y989669D01*
X830241Y972895D01*
X809948D01*
X809827Y973054D01*
X809478Y974165D01*
X828247Y992933D01*
X829089Y994193D01*
X829385Y995680D01*
Y1034983D01*
X830105Y1035398D01*
X831501Y1036795D01*
X832489Y1038505D01*
X833000Y1040413D01*
Y1042387D01*
X832489Y1044295D01*
X831501Y1046005D01*
X830105Y1047402D01*
X828395Y1048389D01*
X826487Y1048900D01*
X824513D01*
X822605Y1048389D01*
X820895Y1047402D01*
X819499Y1046005D01*
X818511Y1044295D01*
X818000Y1042387D01*
Y1040413D01*
X818511Y1038505D01*
X819499Y1036795D01*
X820895Y1035398D01*
X821615Y1034983D01*
Y997289D01*
X804841Y980515D01*
X797991D01*
X797505Y981688D01*
X802847Y987030D01*
X803689Y988290D01*
X803985Y989777D01*
Y1034983D01*
X804705Y1035398D01*
X806102Y1036795D01*
X807089Y1038505D01*
X807600Y1040413D01*
Y1042387D01*
X807089Y1044295D01*
X806102Y1046005D01*
X804705Y1047402D01*
X802995Y1048389D01*
X801087Y1048900D01*
X799113D01*
X797205Y1048389D01*
X795495Y1047402D01*
X794099Y1046005D01*
X793111Y1044295D01*
X792600Y1042387D01*
Y1040413D01*
X793111Y1038505D01*
X794099Y1036795D01*
X795495Y1035398D01*
X796215Y1034983D01*
Y991386D01*
X779758Y974928D01*
X778585Y975414D01*
Y1034983D01*
X779305Y1035398D01*
X780702Y1036795D01*
X781689Y1038505D01*
X782200Y1040413D01*
Y1042387D01*
X781689Y1044295D01*
X780702Y1046005D01*
X779305Y1047402D01*
X777595Y1048389D01*
X775687Y1048900D01*
X773713D01*
X771805Y1048389D01*
X770095Y1047402D01*
X768699Y1046005D01*
X767711Y1044295D01*
X767200Y1042387D01*
Y1040413D01*
X767711Y1038505D01*
X768699Y1036795D01*
X770095Y1035398D01*
X770815Y1034983D01*
Y973057D01*
X747624Y949865D01*
X747134Y949963D01*
X746144Y950953D01*
X745979Y951496D01*
X746115Y951698D01*
X746366Y952962D01*
X746115Y954227D01*
X745721Y954815D01*
X739367Y948461D01*
X738262Y947722D01*
X736759Y949225D01*
X736759D01*
X737201Y949887D01*
X743925Y956611D01*
X743337Y957004D01*
X742073Y957256D01*
X740808Y957004D01*
X740606Y956869D01*
X740063Y957034D01*
X739073Y958024D01*
X738537Y958246D01*
X738001Y958024D01*
X735523Y955545D01*
X735498Y955561D01*
X734012Y955857D01*
X732525Y955561D01*
X731265Y954719D01*
X731125Y954579D01*
X722837Y962867D01*
X722519Y963079D01*
X722248Y963350D01*
X721895Y963496D01*
X721577Y963709D01*
X721201Y963784D01*
X720848Y963930D01*
X720465D01*
X720090Y964005D01*
X719715Y963930D01*
X719332D01*
X718979Y963784D01*
X718603Y963709D01*
X718285Y963496D01*
X717932Y963350D01*
X717661Y963079D01*
X717343Y962867D01*
X717131Y962549D01*
X716860Y962278D01*
X716714Y961925D01*
X716501Y961607D01*
X716426Y961231D01*
X716280Y960878D01*
Y960495D01*
X716205Y960120D01*
X716280Y959745D01*
Y959362D01*
X716426Y959009D01*
X716501Y958633D01*
X716714Y958315D01*
X716860Y957962D01*
X717131Y957691D01*
X717343Y957373D01*
X728286Y946431D01*
X728433Y945743D01*
X727782Y944932D01*
X726367Y944887D01*
X716535Y954719D01*
X715275Y955561D01*
X713788Y955857D01*
X712302Y955561D01*
X712277Y955545D01*
X709799Y958024D01*
X709263Y958246D01*
X708727Y958024D01*
X708568Y958039D01*
X708474Y958179D01*
X706195Y960459D01*
Y961051D01*
X727360Y982216D01*
X728202Y983476D01*
X728498Y984963D01*
Y1015104D01*
X747509Y1034115D01*
X748313Y1033900D01*
X750287D01*
X752195Y1034411D01*
X753905Y1035398D01*
X755302Y1036795D01*
X756289Y1038505D01*
X756800Y1040413D01*
Y1042387D01*
X756289Y1044295D01*
X755302Y1046005D01*
X753905Y1047402D01*
X752195Y1048389D01*
X750287Y1048900D01*
X748313D01*
X746405Y1048389D01*
X744695Y1047402D01*
X743298Y1046005D01*
X742311Y1044295D01*
X741800Y1042387D01*
Y1040413D01*
X742015Y1039609D01*
X721866Y1019460D01*
X721024Y1018199D01*
X720728Y1016713D01*
Y986572D01*
X707465Y973308D01*
X706195Y973834D01*
Y1018201D01*
X722109Y1034115D01*
X722913Y1033900D01*
X724887D01*
X726795Y1034411D01*
X728505Y1035398D01*
X729902Y1036795D01*
X730889Y1038505D01*
X731400Y1040413D01*
Y1042387D01*
X730889Y1044295D01*
X729902Y1046005D01*
X728505Y1047402D01*
X726795Y1048389D01*
X724887Y1048900D01*
X722913D01*
X721005Y1048389D01*
X719295Y1047402D01*
X717898Y1046005D01*
X716911Y1044295D01*
X716400Y1042387D01*
Y1040413D01*
X716615Y1039609D01*
X699563Y1022557D01*
X698721Y1021297D01*
X698425Y1019810D01*
Y974429D01*
X696327Y972331D01*
X695090Y972890D01*
X695090Y973481D01*
Y979410D01*
X685090D01*
Y972410D01*
X693931D01*
X694610Y972410D01*
X695169Y971173D01*
X691943Y967947D01*
X691101Y966687D01*
X690805Y965200D01*
Y960895D01*
X689632Y960409D01*
X682065Y967977D01*
Y1019471D01*
X696709Y1034115D01*
X697513Y1033900D01*
X699487D01*
X701395Y1034411D01*
X703105Y1035398D01*
X704501Y1036795D01*
X705489Y1038505D01*
X706000Y1040413D01*
Y1042387D01*
X705489Y1044295D01*
X704501Y1046005D01*
X703105Y1047402D01*
X701395Y1048389D01*
X699487Y1048900D01*
X697513D01*
X695605Y1048389D01*
X693895Y1047402D01*
X692498Y1046005D01*
X691511Y1044295D01*
X691000Y1042387D01*
Y1040413D01*
X691215Y1039609D01*
X678158Y1026552D01*
X676985Y1027038D01*
Y1034983D01*
X677705Y1035398D01*
X679101Y1036795D01*
X680089Y1038505D01*
X680600Y1040413D01*
Y1042387D01*
X680089Y1044295D01*
X679101Y1046005D01*
X677705Y1047402D01*
X675995Y1048389D01*
X674088Y1048900D01*
X672113D01*
X670205Y1048389D01*
X668495Y1047402D01*
X667099Y1046005D01*
X666111Y1044295D01*
X665600Y1042387D01*
Y1040413D01*
X666111Y1038505D01*
X667099Y1036795D01*
X668495Y1035398D01*
X669215Y1034983D01*
Y968343D01*
X668042Y967857D01*
X651585Y984315D01*
Y1034983D01*
X652305Y1035398D01*
X653701Y1036795D01*
X654689Y1038505D01*
X655200Y1040413D01*
Y1042387D01*
X654689Y1044295D01*
X653701Y1046005D01*
X652305Y1047402D01*
X650595Y1048389D01*
X648687Y1048900D01*
X646713D01*
X644805Y1048389D01*
X643095Y1047402D01*
X641699Y1046005D01*
X640711Y1044295D01*
X640200Y1042387D01*
Y1040413D01*
X640711Y1038505D01*
X641699Y1036795D01*
X643095Y1035398D01*
X643815Y1034983D01*
Y986672D01*
X642642Y986186D01*
X626185Y1002644D01*
Y1034983D01*
X626905Y1035398D01*
X628302Y1036795D01*
X629289Y1038505D01*
X629800Y1040413D01*
Y1042387D01*
X629289Y1044295D01*
X628302Y1046005D01*
X626905Y1047402D01*
X625195Y1048389D01*
X623287Y1048900D01*
X621313D01*
X619405Y1048389D01*
X617695Y1047402D01*
X616298Y1046005D01*
X615311Y1044295D01*
X614800Y1042387D01*
Y1040413D01*
X615311Y1038505D01*
X616298Y1036795D01*
X617695Y1035398D01*
X618415Y1034983D01*
Y1001034D01*
X618711Y999548D01*
X619553Y998288D01*
X683496Y934345D01*
X683492Y933702D01*
X682316Y932673D01*
X682009Y932689D01*
X681814Y932769D01*
X600785Y1013799D01*
Y1034983D01*
X601505Y1035398D01*
X602901Y1036795D01*
X603889Y1038505D01*
X604400Y1040413D01*
Y1042387D01*
X603889Y1044295D01*
X602901Y1046005D01*
X601505Y1047402D01*
X599795Y1048389D01*
X597887Y1048900D01*
X595913D01*
X594005Y1048389D01*
X592295Y1047402D01*
X590899Y1046005D01*
X589911Y1044295D01*
X589400Y1042387D01*
Y1040413D01*
X589911Y1038505D01*
X590899Y1036795D01*
X592295Y1035398D01*
X593015Y1034983D01*
Y1016259D01*
X591842Y1015773D01*
X575916Y1031699D01*
Y1035289D01*
X576105Y1035398D01*
X577501Y1036795D01*
X578489Y1038505D01*
X579000Y1040413D01*
Y1042387D01*
X578489Y1044295D01*
X577501Y1046005D01*
X576105Y1047402D01*
X574395Y1048389D01*
X572487Y1048900D01*
X570513D01*
X568605Y1048389D01*
X566895Y1047402D01*
X565499Y1046005D01*
X564511Y1044295D01*
X564000Y1042387D01*
Y1040413D01*
X564511Y1038505D01*
X565499Y1036795D01*
X566895Y1035398D01*
X568147Y1034676D01*
Y1030090D01*
X568442Y1028603D01*
X569284Y1027343D01*
X575570Y1021058D01*
X575084Y1019885D01*
X528877D01*
X524585Y1024177D01*
Y1032050D01*
X526865Y1033366D01*
X528734Y1035235D01*
X529303Y1036220D01*
X537497D01*
X538066Y1035235D01*
X539935Y1033366D01*
X542225Y1032044D01*
X544778Y1031360D01*
X544830D01*
Y1041400D01*
Y1051440D01*
D02*
G37*
G36*
X547422D02*
X547370D01*
Y1042670D01*
X556140D01*
Y1042722D01*
X555456Y1045275D01*
X554134Y1047565D01*
X552265Y1049434D01*
X549975Y1050756D01*
X547422Y1051440D01*
D02*
G37*
G36*
X519430D02*
X519378D01*
X516825Y1050756D01*
X514535Y1049434D01*
X512666Y1047565D01*
X511344Y1045275D01*
X510660Y1042722D01*
Y1042670D01*
X519430D01*
Y1051440D01*
D02*
G37*
G36*
X556140Y1040130D02*
X547370D01*
Y1031360D01*
X547422D01*
X549975Y1032044D01*
X552265Y1033366D01*
X554134Y1035235D01*
X555456Y1037525D01*
X556140Y1040078D01*
Y1040130D01*
D02*
G37*
G36*
X695090Y1016410D02*
X685090D01*
Y1009410D01*
X695090D01*
Y1016410D01*
D02*
G37*
G36*
X750090Y1018090D02*
X748590D01*
X746608Y1017695D01*
X744928Y1016572D01*
X740645Y1012290D01*
X740410D01*
X738428Y1011895D01*
X736748Y1010772D01*
X735625Y1009092D01*
X735230Y1007110D01*
X735625Y1005128D01*
X736748Y1003447D01*
X738428Y1002325D01*
X740410Y1001930D01*
X742790D01*
X744772Y1002325D01*
X746452Y1003447D01*
X750896Y1007891D01*
X752072Y1008125D01*
X753753Y1009248D01*
X753861Y1009410D01*
X755090D01*
Y1012007D01*
X755269Y1012910D01*
X755090Y1013813D01*
Y1016410D01*
X753861D01*
X753753Y1016572D01*
X752072Y1017695D01*
X750090Y1018090D01*
D02*
G37*
G36*
X520319Y1003300D02*
X510794D01*
Y994410D01*
X520319D01*
Y1003300D01*
D02*
G37*
G36*
X508254D02*
X498729D01*
Y994410D01*
X508254D01*
Y1003300D01*
D02*
G37*
G36*
Y991870D02*
X498729D01*
Y982980D01*
X508254D01*
Y991870D01*
D02*
G37*
G36*
X749370Y981809D02*
X735330D01*
X733348Y981415D01*
X731667Y980293D01*
X730545Y978612D01*
X730151Y976630D01*
X730545Y974648D01*
X731667Y972968D01*
X733348Y971845D01*
X735330Y971451D01*
X747620D01*
X748108Y971125D01*
X750090Y970731D01*
X752072Y971125D01*
X753753Y972247D01*
X753861Y972410D01*
X755090D01*
Y975007D01*
X755269Y975910D01*
X755090Y976813D01*
Y979410D01*
X753861D01*
X753753Y979573D01*
X753033Y980293D01*
X751352Y981415D01*
X749370Y981809D01*
D02*
G37*
G36*
X520319Y991870D02*
X510794D01*
Y982980D01*
X512359D01*
X520601Y974739D01*
Y962002D01*
X519330Y961571D01*
X518515Y962634D01*
X518515Y962634D01*
X517779Y963369D01*
Y967740D01*
X510658D01*
X510159Y967806D01*
X509524D01*
X509025Y967740D01*
X501269D01*
Y952500D01*
X505394D01*
Y914400D01*
X505656Y912411D01*
X506424Y910557D01*
X506730Y910158D01*
Y907415D01*
X510031D01*
X511091Y906976D01*
X513080Y906714D01*
X515069Y906976D01*
X516129Y907415D01*
X519430D01*
Y910158D01*
X519736Y910557D01*
X520504Y912411D01*
X520766Y914400D01*
Y946035D01*
X522036Y946420D01*
X522118Y946298D01*
X525928Y942487D01*
X527608Y941365D01*
X529590Y940971D01*
X532765D01*
Y933450D01*
X541020D01*
Y942340D01*
Y951230D01*
X538980D01*
X538480Y951329D01*
X531735D01*
X530960Y952105D01*
Y976884D01*
X530960Y976884D01*
X530565Y978866D01*
X529442Y980546D01*
X520319Y989670D01*
Y991870D01*
D02*
G37*
G36*
X580390Y997049D02*
X579890Y996950D01*
X579380D01*
X578908Y996755D01*
X578408Y996655D01*
X577984Y996372D01*
X577512Y996177D01*
X577152Y995816D01*
X576727Y995533D01*
X576444Y995108D01*
X576083Y994748D01*
X575888Y994276D01*
X575605Y993852D01*
X575505Y993352D01*
X575310Y992880D01*
Y992370D01*
X575210Y991870D01*
Y981710D01*
X575605Y979728D01*
X576727Y978047D01*
X581952Y972823D01*
X581466Y971649D01*
X567055D01*
X565073Y971255D01*
X563392Y970133D01*
X544490Y951230D01*
X543560D01*
Y943610D01*
X551815D01*
Y943905D01*
X569200Y961291D01*
X595630D01*
X596130Y961390D01*
X596641D01*
X597112Y961585D01*
X597612Y961685D01*
X598036Y961968D01*
X598508Y962163D01*
X598868Y962524D01*
X599292Y962807D01*
X599576Y963232D01*
X599937Y963592D01*
X600132Y964064D01*
X600415Y964488D01*
X600515Y964988D01*
X600710Y965460D01*
Y965970D01*
X600810Y966470D01*
X600710Y966970D01*
Y967480D01*
X600515Y967952D01*
X600415Y968452D01*
X600132Y968876D01*
X599937Y969348D01*
X599576Y969708D01*
X599292Y970133D01*
X585569Y983855D01*
Y991870D01*
X585470Y992370D01*
Y992880D01*
X585275Y993352D01*
X585175Y993852D01*
X584892Y994276D01*
X584697Y994748D01*
X584336Y995108D01*
X584053Y995533D01*
X583628Y995816D01*
X583268Y996177D01*
X582796Y996372D01*
X582372Y996655D01*
X581872Y996755D01*
X581400Y996950D01*
X580890D01*
X580390Y997049D01*
D02*
G37*
G36*
X551815Y941070D02*
X543560D01*
Y933450D01*
X551815D01*
Y941070D01*
D02*
G37*
G36*
X976760Y930510D02*
X971630D01*
Y923120D01*
X983020D01*
Y924250D01*
X982544Y926646D01*
X981187Y928677D01*
X979156Y930034D01*
X976760Y930510D01*
D02*
G37*
G36*
X944590Y931390D02*
X936320D01*
Y922120D01*
X944590D01*
Y931390D01*
D02*
G37*
G36*
X883972Y921900D02*
X883920D01*
Y913130D01*
X892690D01*
Y913182D01*
X892006Y915735D01*
X890684Y918025D01*
X888815Y919894D01*
X886525Y921216D01*
X883972Y921900D01*
D02*
G37*
G36*
X881380D02*
X881328D01*
X878775Y921216D01*
X876485Y919894D01*
X874616Y918025D01*
X873294Y915735D01*
X872610Y913182D01*
Y913130D01*
X881380D01*
Y921900D01*
D02*
G37*
G36*
X858237Y919360D02*
X856263D01*
X854355Y918849D01*
X852645Y917861D01*
X851248Y916465D01*
X850261Y914755D01*
X849750Y912847D01*
Y910873D01*
X850261Y908965D01*
X851248Y907255D01*
X852645Y905859D01*
X854355Y904871D01*
X856263Y904360D01*
X858237D01*
X860145Y904871D01*
X861855Y905859D01*
X863251Y907255D01*
X864239Y908965D01*
X864750Y910873D01*
Y912847D01*
X864239Y914755D01*
X863251Y916465D01*
X861855Y917861D01*
X860145Y918849D01*
X858237Y919360D01*
D02*
G37*
G36*
X832837D02*
X830863D01*
X828955Y918849D01*
X827245Y917861D01*
X825848Y916465D01*
X824861Y914755D01*
X824350Y912847D01*
Y910873D01*
X824861Y908965D01*
X825848Y907255D01*
X827245Y905859D01*
X828955Y904871D01*
X830863Y904360D01*
X832837D01*
X834745Y904871D01*
X836455Y905859D01*
X837851Y907255D01*
X838839Y908965D01*
X839350Y910873D01*
Y912847D01*
X838839Y914755D01*
X837851Y916465D01*
X836455Y917861D01*
X834745Y918849D01*
X832837Y919360D01*
D02*
G37*
G36*
X955400Y931390D02*
X947130D01*
Y920850D01*
X945860D01*
Y919580D01*
X936320D01*
Y910310D01*
X940680D01*
Y906390D01*
X934320D01*
Y903120D01*
X943610D01*
X952900D01*
Y906390D01*
X951040D01*
Y910310D01*
X955400D01*
Y913664D01*
X957371D01*
X958320Y912890D01*
Y902120D01*
X970360D01*
X982400D01*
Y912890D01*
X980280D01*
X979895Y914160D01*
X981187Y915023D01*
X982544Y917054D01*
X983020Y919450D01*
Y920580D01*
X970360D01*
Y921850D01*
X969090D01*
Y930510D01*
X963960D01*
X961564Y930034D01*
X960071Y929036D01*
X955400D01*
Y931390D01*
D02*
G37*
G36*
X892690Y910590D02*
X883920D01*
Y901820D01*
X883972D01*
X886525Y902504D01*
X888815Y903826D01*
X890684Y905695D01*
X892006Y907985D01*
X892690Y910538D01*
Y910590D01*
D02*
G37*
G36*
X881380D02*
X872610D01*
Y910538D01*
X873294Y907985D01*
X874616Y905695D01*
X876485Y903826D01*
X878775Y902504D01*
X881328Y901820D01*
X881380D01*
Y910590D01*
D02*
G37*
G36*
X952900Y900580D02*
X943610D01*
X934320D01*
Y897310D01*
Y896620D01*
X943610D01*
X952900D01*
Y897310D01*
Y900580D01*
D02*
G37*
G36*
X679423Y899131D02*
X678887Y898910D01*
X676409Y896431D01*
X676384Y896447D01*
X674898Y896743D01*
X673411Y896447D01*
X672151Y895605D01*
X544970Y768425D01*
X520700D01*
X519213Y768129D01*
X517953Y767287D01*
X503656Y752990D01*
X494150D01*
Y737990D01*
X509150D01*
Y747496D01*
X522309Y760655D01*
X542612D01*
X543098Y759482D01*
X535375Y751759D01*
X531192D01*
X529945Y752479D01*
X528037Y752990D01*
X526063D01*
X524155Y752479D01*
X522445Y751491D01*
X521049Y750095D01*
X520061Y748385D01*
X519550Y746477D01*
Y744503D01*
X520061Y742595D01*
X521049Y740885D01*
X522445Y739489D01*
X524155Y738501D01*
X526063Y737990D01*
X528037D01*
X529945Y738501D01*
X531655Y739489D01*
X533051Y740885D01*
X534039Y742595D01*
X534412Y743989D01*
X536984D01*
X538471Y744285D01*
X539731Y745127D01*
X545518Y750914D01*
X546449Y750095D01*
X545461Y748385D01*
X544950Y746477D01*
Y744503D01*
X545461Y742595D01*
X546449Y740885D01*
X547845Y739489D01*
X549555Y738501D01*
X551463Y737990D01*
X553437D01*
X555345Y738501D01*
X557055Y739489D01*
X558451Y740885D01*
X559439Y742595D01*
X559950Y744503D01*
Y746477D01*
X559439Y748385D01*
X558451Y750095D01*
X557055Y751491D01*
X556902Y751580D01*
Y755878D01*
X572792Y771768D01*
X573965Y771282D01*
Y751907D01*
X573245Y751491D01*
X571848Y750095D01*
X570861Y748385D01*
X570350Y746477D01*
Y744503D01*
X570861Y742595D01*
X571848Y740885D01*
X573245Y739489D01*
X574955Y738501D01*
X576862Y737990D01*
X578837D01*
X580745Y738501D01*
X582455Y739489D01*
X583851Y740885D01*
X584839Y742595D01*
X585350Y744503D01*
Y746477D01*
X584839Y748385D01*
X583851Y750095D01*
X582455Y751491D01*
X581735Y751907D01*
Y772989D01*
X651510Y842764D01*
X652088Y842654D01*
X652863Y842321D01*
X652926Y842169D01*
X653001Y841793D01*
X653214Y841475D01*
X653360Y841122D01*
X653631Y840851D01*
X653843Y840533D01*
X654161Y840321D01*
X654432Y840050D01*
X654785Y839904D01*
X655103Y839691D01*
X655479Y839616D01*
X655832Y839470D01*
X656215D01*
X656590Y839395D01*
X656965Y839470D01*
X657348D01*
X657701Y839616D01*
X658077Y839691D01*
X658395Y839904D01*
X658748Y840050D01*
X659019Y840321D01*
X659337Y840533D01*
X659823Y841019D01*
X660665Y842279D01*
X660961Y843766D01*
Y845144D01*
X666847Y851030D01*
X667338Y851040D01*
X668237Y850685D01*
X668263Y850650D01*
X668454Y850365D01*
X668600Y850012D01*
X668871Y849741D01*
X669083Y849423D01*
X669401Y849211D01*
X669672Y848940D01*
X670025Y848794D01*
X670343Y848581D01*
X670719Y848506D01*
X671072Y848360D01*
X671455D01*
X671830Y848285D01*
X672205Y848360D01*
X672588D01*
X672941Y848506D01*
X673317Y848581D01*
X673635Y848794D01*
X673988Y848940D01*
X674259Y849211D01*
X674577Y849423D01*
X675063Y849909D01*
X675905Y851169D01*
X676201Y852656D01*
Y853312D01*
X689570Y866681D01*
X690060Y866584D01*
X691049Y865594D01*
X691214Y865051D01*
X691079Y864848D01*
X690827Y863584D01*
X691079Y862320D01*
X691795Y861248D01*
X692206Y860837D01*
X692338Y859173D01*
X688133Y854968D01*
X687818Y854496D01*
X687650Y854328D01*
X687559Y854109D01*
X687291Y853708D01*
X687197Y853234D01*
X687070Y852928D01*
Y852597D01*
X686995Y852221D01*
Y852170D01*
X687070Y851795D01*
Y851412D01*
X687216Y851059D01*
X687291Y850683D01*
X687504Y850365D01*
X687650Y850012D01*
X687921Y849741D01*
X688133Y849423D01*
X688241Y848056D01*
X600503Y760318D01*
X599661Y759058D01*
X599365Y757571D01*
Y751907D01*
X598645Y751491D01*
X597248Y750095D01*
X596261Y748385D01*
X595750Y746477D01*
Y744503D01*
X596261Y742595D01*
X597248Y740885D01*
X598645Y739489D01*
X600355Y738501D01*
X602263Y737990D01*
X604237D01*
X606145Y738501D01*
X607855Y739489D01*
X609252Y740885D01*
X610239Y742595D01*
X610750Y744503D01*
Y746477D01*
X610239Y748385D01*
X609252Y750095D01*
X607855Y751491D01*
X607135Y751907D01*
Y755962D01*
X623592Y772420D01*
X624765Y771934D01*
Y751907D01*
X624045Y751491D01*
X622649Y750095D01*
X621661Y748385D01*
X621150Y746477D01*
Y744503D01*
X621661Y742595D01*
X622649Y740885D01*
X624045Y739489D01*
X625755Y738501D01*
X627663Y737990D01*
X629637D01*
X631545Y738501D01*
X633255Y739489D01*
X634651Y740885D01*
X635639Y742595D01*
X636150Y744503D01*
Y746477D01*
X635639Y748385D01*
X634651Y750095D01*
X633255Y751491D01*
X632535Y751907D01*
Y774291D01*
X648992Y790748D01*
X650165Y790262D01*
Y751907D01*
X649445Y751491D01*
X648048Y750095D01*
X647061Y748385D01*
X646550Y746477D01*
Y744503D01*
X647061Y742595D01*
X648048Y740885D01*
X649445Y739489D01*
X651155Y738501D01*
X653063Y737990D01*
X655037D01*
X656945Y738501D01*
X658655Y739489D01*
X660051Y740885D01*
X661039Y742595D01*
X661550Y744503D01*
Y746477D01*
X661039Y748385D01*
X660051Y750095D01*
X658655Y751491D01*
X657935Y751907D01*
Y792620D01*
X716535Y851221D01*
X717377Y852481D01*
X717673Y853968D01*
X717377Y855454D01*
X717361Y855479D01*
X719840Y857957D01*
X720061Y858493D01*
X719840Y859029D01*
X718850Y860019D01*
X718314Y860241D01*
X717778Y860019D01*
X715300Y857540D01*
X715275Y857557D01*
X714080Y857794D01*
X713842Y858990D01*
X713825Y859014D01*
X716164Y861352D01*
X716304Y861493D01*
Y861493D01*
X716526Y862029D01*
X716304Y862564D01*
Y862564D01*
X716164Y862704D01*
X715314Y863554D01*
X714778Y863776D01*
X714243Y863554D01*
X711764Y861076D01*
X711739Y861092D01*
X710544Y861330D01*
X710306Y862525D01*
X710290Y862550D01*
X712628Y864888D01*
X712769Y865028D01*
Y865029D01*
X712990Y865564D01*
X712769Y866100D01*
Y866100D01*
X712628Y866240D01*
X711778Y867090D01*
X711243Y867312D01*
X710707Y867090D01*
X708228Y864611D01*
X708204Y864628D01*
X707009Y864865D01*
X706771Y866061D01*
X706754Y866085D01*
X709093Y868423D01*
X709233Y868564D01*
Y868564D01*
X709455Y869100D01*
X709233Y869635D01*
Y869635D01*
X708847Y870021D01*
X708729Y871645D01*
X708779Y871749D01*
X710716Y873685D01*
X724410D01*
X724832Y873263D01*
X726440Y872598D01*
Y877570D01*
Y882542D01*
X724832Y881877D01*
X724410Y881455D01*
X714754D01*
X714448Y881829D01*
X714135Y882725D01*
X714159Y882761D01*
X714430Y883032D01*
X714576Y883385D01*
X714789Y883703D01*
X714864Y884079D01*
X715010Y884432D01*
Y884815D01*
X715085Y885190D01*
X715010Y885565D01*
Y885948D01*
X714864Y886301D01*
X714789Y886677D01*
X714576Y886995D01*
X714430Y887348D01*
X714159Y887619D01*
X713947Y887937D01*
X713629Y888149D01*
X713358Y888420D01*
X713005Y888566D01*
X712687Y888779D01*
X712311Y888854D01*
X711958Y889000D01*
X711575D01*
X711200Y889075D01*
X710825Y889000D01*
X710442D01*
X710089Y888854D01*
X709713Y888779D01*
X709429Y888589D01*
X709169D01*
X707683Y888293D01*
X706423Y887451D01*
X699116Y880145D01*
X698626Y880242D01*
X697636Y881232D01*
X697101Y881454D01*
X696565Y881232D01*
X694086Y878753D01*
X694062Y878770D01*
X692866Y879007D01*
X692629Y880203D01*
X692612Y880227D01*
X694950Y882566D01*
X695091Y882706D01*
Y882706D01*
X695313Y883242D01*
X695091Y883777D01*
Y883777D01*
X694951Y883918D01*
X694101Y884767D01*
X693565Y884989D01*
X693029Y884767D01*
X690551Y882289D01*
X690526Y882305D01*
X689331Y882543D01*
X689093Y883738D01*
X689077Y883763D01*
X691415Y886101D01*
X691555Y886242D01*
Y886242D01*
X691777Y886777D01*
X691555Y887313D01*
Y887313D01*
X691415Y887453D01*
X690565Y888303D01*
X690030Y888525D01*
X689494Y888303D01*
X687015Y885824D01*
X686991Y885841D01*
X685795Y886078D01*
X685557Y887274D01*
X685541Y887298D01*
X687879Y889637D01*
X688020Y889777D01*
Y889777D01*
X688242Y890313D01*
X688020Y890848D01*
Y890849D01*
X687879Y890989D01*
X687030Y891839D01*
X686494Y892060D01*
X685958Y891839D01*
X683480Y889360D01*
X683455Y889376D01*
X682260Y889614D01*
X682022Y890809D01*
X682006Y890834D01*
X684344Y893172D01*
X684484Y893313D01*
Y893313D01*
X684706Y893848D01*
X684484Y894384D01*
Y894384D01*
X684344Y894524D01*
X683494Y895374D01*
X682959Y895596D01*
X682423Y895374D01*
X679944Y892895D01*
X679920Y892912D01*
X678724Y893150D01*
X678486Y894345D01*
X678470Y894370D01*
X680949Y896848D01*
X681171Y897384D01*
X680949Y897920D01*
X679959Y898910D01*
X679423Y899131D01*
D02*
G37*
G36*
X587994Y941705D02*
X585486D01*
X583064Y941056D01*
X580891Y939802D01*
X579118Y938028D01*
X577864Y935856D01*
X577215Y933434D01*
Y930926D01*
X577864Y928503D01*
X579118Y926331D01*
X580891Y924558D01*
X583064Y923304D01*
X585486Y922655D01*
X587994D01*
X590416Y923304D01*
X590633Y923429D01*
X622728Y891333D01*
X623988Y890491D01*
X625475Y890195D01*
X626110D01*
X626485Y890270D01*
X626868D01*
X627221Y890416D01*
X627597Y890491D01*
X627915Y890704D01*
X628268Y890850D01*
X628539Y891121D01*
X628857Y891333D01*
X629069Y891651D01*
X629340Y891922D01*
X629486Y892275D01*
X629699Y892593D01*
X629774Y892969D01*
X629920Y893322D01*
Y893705D01*
X629995Y894080D01*
X629920Y894455D01*
Y894838D01*
X629774Y895191D01*
X629699Y895567D01*
X629486Y895885D01*
X629340Y896238D01*
X629069Y896509D01*
X628857Y896827D01*
X628539Y897039D01*
X628268Y897310D01*
X627915Y897456D01*
X627597Y897669D01*
X627326Y897723D01*
X595812Y929236D01*
X596265Y930926D01*
Y933434D01*
X595616Y935856D01*
X594362Y938028D01*
X592589Y939802D01*
X590416Y941056D01*
X587994Y941705D01*
D02*
G37*
G36*
X883972Y896500D02*
X883920D01*
Y887730D01*
X892690D01*
Y887782D01*
X892006Y890335D01*
X890684Y892625D01*
X888815Y894494D01*
X886525Y895816D01*
X883972Y896500D01*
D02*
G37*
G36*
X881380D02*
X881328D01*
X878775Y895816D01*
X876485Y894494D01*
X874616Y892625D01*
X873294Y890335D01*
X872610Y887782D01*
Y887730D01*
X881380D01*
Y896500D01*
D02*
G37*
G36*
X839350Y893960D02*
X824350D01*
Y878960D01*
X839350D01*
Y893960D01*
D02*
G37*
G36*
X464537D02*
X462563D01*
X460655Y893449D01*
X458945Y892461D01*
X457548Y891065D01*
X456561Y889355D01*
X456050Y887447D01*
Y885473D01*
X456561Y883565D01*
X457548Y881855D01*
X458945Y880459D01*
X460655Y879471D01*
X462563Y878960D01*
X464537D01*
X466445Y879471D01*
X468155Y880459D01*
X469552Y881855D01*
X470539Y883565D01*
X471050Y885473D01*
Y887447D01*
X470539Y889355D01*
X469552Y891065D01*
X468155Y892461D01*
X466445Y893449D01*
X464537Y893960D01*
D02*
G37*
G36*
X728980Y882542D02*
Y878840D01*
X732682D01*
X732017Y880448D01*
X730588Y881877D01*
X728980Y882542D01*
D02*
G37*
G36*
X982400Y899580D02*
X970360D01*
X958320D01*
Y888810D01*
Y878120D01*
X970360D01*
X982400D01*
Y888810D01*
Y899580D01*
D02*
G37*
G36*
X892690Y885190D02*
X883920D01*
Y876420D01*
X883972D01*
X886525Y877104D01*
X888815Y878426D01*
X890684Y880295D01*
X892006Y882585D01*
X892690Y885138D01*
Y885190D01*
D02*
G37*
G36*
X881380D02*
X872610D01*
Y885138D01*
X873294Y882585D01*
X874616Y880295D01*
X876485Y878426D01*
X878775Y877104D01*
X881328Y876420D01*
X881380D01*
Y885190D01*
D02*
G37*
G36*
X732682Y876300D02*
X728980D01*
Y872598D01*
X730588Y873263D01*
X732017Y874692D01*
X732682Y876300D01*
D02*
G37*
G36*
X982400Y875580D02*
X970360D01*
X958320D01*
Y864810D01*
X957164Y864536D01*
X955400D01*
Y867390D01*
X947130D01*
Y856850D01*
Y846310D01*
X955400D01*
Y849164D01*
X959439D01*
X959533Y849023D01*
X961564Y847666D01*
X963960Y847190D01*
X969090D01*
Y855850D01*
X970360D01*
Y857120D01*
X983020D01*
Y858250D01*
X982544Y860646D01*
X981187Y862677D01*
X979895Y863540D01*
X980280Y864810D01*
X982400D01*
Y875580D01*
D02*
G37*
G36*
X944590Y867390D02*
X936320D01*
Y858120D01*
X944590D01*
Y867390D01*
D02*
G37*
G36*
X464537Y868560D02*
X462563D01*
X460655Y868049D01*
X458945Y867061D01*
X457548Y865665D01*
X456561Y863955D01*
X456050Y862047D01*
Y860073D01*
X456561Y858165D01*
X457548Y856455D01*
X458945Y855059D01*
X460655Y854071D01*
X462563Y853560D01*
X464537D01*
X466445Y854071D01*
X468155Y855059D01*
X469552Y856455D01*
X470539Y858165D01*
X471050Y860073D01*
Y862047D01*
X470539Y863955D01*
X469552Y865665D01*
X468155Y867061D01*
X466445Y868049D01*
X464537Y868560D01*
D02*
G37*
G36*
X983020Y854580D02*
X971630D01*
Y847190D01*
X976760D01*
X979156Y847666D01*
X981187Y849023D01*
X982544Y851054D01*
X983020Y853450D01*
Y854580D01*
D02*
G37*
G36*
X944590Y855580D02*
X936320D01*
Y846310D01*
X944590D01*
Y855580D01*
D02*
G37*
G36*
X587994Y890905D02*
X585486D01*
X583064Y890256D01*
X580891Y889002D01*
X579118Y887228D01*
X577864Y885057D01*
X577215Y882634D01*
Y880126D01*
X577864Y877703D01*
X579118Y875531D01*
X580891Y873758D01*
X583064Y872504D01*
X585486Y871855D01*
X587994D01*
X590184Y872442D01*
X606985Y855641D01*
Y842010D01*
X607060Y841635D01*
Y841252D01*
X607206Y840899D01*
X607281Y840523D01*
X607494Y840205D01*
X607640Y839852D01*
X607911Y839581D01*
X608123Y839263D01*
X608441Y839051D01*
X608712Y838780D01*
X609065Y838634D01*
X609383Y838421D01*
X609759Y838346D01*
X610112Y838200D01*
X610495D01*
X610870Y838125D01*
X611245Y838200D01*
X611628D01*
X611981Y838346D01*
X612357Y838421D01*
X612675Y838634D01*
X613028Y838780D01*
X613299Y839051D01*
X613617Y839263D01*
X613829Y839581D01*
X614100Y839852D01*
X614246Y840205D01*
X614459Y840523D01*
X614534Y840899D01*
X614680Y841252D01*
Y841635D01*
X614755Y842010D01*
Y857250D01*
X614459Y858737D01*
X613617Y859997D01*
X595678Y877936D01*
X596265Y880126D01*
Y882634D01*
X595616Y885057D01*
X594362Y887228D01*
X592589Y889002D01*
X590416Y890256D01*
X587994Y890905D01*
D02*
G37*
G36*
X464872Y845700D02*
X464820D01*
Y836930D01*
X473590D01*
Y836982D01*
X472906Y839535D01*
X471584Y841825D01*
X469715Y843694D01*
X467425Y845016D01*
X464872Y845700D01*
D02*
G37*
G36*
X462280D02*
X462228D01*
X459675Y845016D01*
X457385Y843694D01*
X455516Y841825D01*
X454194Y839535D01*
X453510Y836982D01*
Y836930D01*
X462280D01*
Y845700D01*
D02*
G37*
G36*
X473590Y834390D02*
X464820D01*
Y825620D01*
X464872D01*
X467425Y826304D01*
X469715Y827626D01*
X471584Y829495D01*
X472906Y831785D01*
X473590Y834338D01*
Y834390D01*
D02*
G37*
G36*
X462280D02*
X453510D01*
Y834338D01*
X454194Y831785D01*
X455516Y829495D01*
X457385Y827626D01*
X459675Y826304D01*
X462228Y825620D01*
X462280D01*
Y834390D01*
D02*
G37*
G36*
X525780Y853506D02*
X523791Y853244D01*
X521937Y852476D01*
X521538Y852170D01*
X518795D01*
Y848869D01*
X518356Y847809D01*
X518094Y845820D01*
X518356Y843831D01*
X518602Y843237D01*
Y831850D01*
X518541D01*
Y816610D01*
X526297D01*
X526796Y816544D01*
X527295Y816610D01*
X535051D01*
Y831850D01*
X533974D01*
Y845312D01*
X533712Y847301D01*
X532944Y849155D01*
X532765Y849388D01*
Y852170D01*
X530022D01*
X529623Y852476D01*
X527769Y853244D01*
X525780Y853506D01*
D02*
G37*
G36*
X535051Y798830D02*
X518541D01*
Y783590D01*
X523165D01*
Y774700D01*
X523240Y774325D01*
Y773942D01*
X523386Y773589D01*
X523461Y773213D01*
X523674Y772895D01*
X523820Y772542D01*
X524091Y772271D01*
X524303Y771953D01*
X524621Y771741D01*
X524892Y771470D01*
X525245Y771324D01*
X525563Y771111D01*
X525939Y771036D01*
X526292Y770890D01*
X526675D01*
X527050Y770815D01*
X527425Y770890D01*
X527808D01*
X528161Y771036D01*
X528537Y771111D01*
X528855Y771324D01*
X529208Y771470D01*
X529479Y771741D01*
X529797Y771953D01*
X530009Y772271D01*
X530280Y772542D01*
X530426Y772895D01*
X530639Y773213D01*
X530714Y773589D01*
X530860Y773942D01*
Y774325D01*
X530935Y774700D01*
Y783590D01*
X535051D01*
Y798830D01*
D02*
G37*
G36*
X934772Y755530D02*
X934720D01*
Y746760D01*
X943490D01*
Y746812D01*
X942806Y749365D01*
X941484Y751655D01*
X939615Y753524D01*
X937325Y754846D01*
X934772Y755530D01*
D02*
G37*
G36*
X750570Y909395D02*
X750195Y909320D01*
X749812D01*
X749459Y909174D01*
X749083Y909099D01*
X748765Y908886D01*
X748412Y908740D01*
X748141Y908469D01*
X747823Y908257D01*
X747611Y907939D01*
X747340Y907668D01*
X747194Y907315D01*
X746981Y906997D01*
X746906Y906621D01*
X746760Y906268D01*
Y905885D01*
X746685Y905510D01*
Y886907D01*
X746981Y885420D01*
X747823Y884160D01*
X749681Y882302D01*
X749641Y880709D01*
X749314Y880382D01*
X749174Y880242D01*
Y880242D01*
X748952Y879706D01*
X749174Y879171D01*
Y879170D01*
X749314Y879030D01*
X751652Y876692D01*
X751636Y876667D01*
X751398Y875472D01*
X750203Y875234D01*
X750178Y875218D01*
X747700Y877696D01*
X747164Y877918D01*
X746628Y877696D01*
X745779Y876847D01*
X745638Y876706D01*
Y876706D01*
X745416Y876171D01*
X745638Y875635D01*
Y875635D01*
X745778Y875495D01*
X748117Y873156D01*
X748100Y873132D01*
X747863Y871936D01*
X746667Y871699D01*
X746643Y871682D01*
X744164Y874161D01*
X743628Y874383D01*
X743092Y874161D01*
X742243Y873311D01*
X742103Y873171D01*
Y873171D01*
X741881Y872635D01*
X742103Y872100D01*
Y872099D01*
X742243Y871959D01*
X744581Y869621D01*
X744565Y869596D01*
X744327Y868401D01*
X743132Y868163D01*
X743107Y868147D01*
X740629Y870625D01*
X740093Y870847D01*
X739557Y870625D01*
X738707Y869776D01*
X738567Y869635D01*
Y869635D01*
X738345Y869100D01*
X738567Y868564D01*
Y868564D01*
X738707Y868423D01*
X741046Y866085D01*
X741029Y866061D01*
X740791Y864865D01*
X739596Y864628D01*
X739572Y864611D01*
X737093Y867090D01*
X736557Y867312D01*
X736021Y867090D01*
X735172Y866240D01*
X735031Y866100D01*
Y866100D01*
X734810Y865564D01*
X735031Y865029D01*
Y865028D01*
X735172Y864888D01*
X737510Y862550D01*
X737494Y862525D01*
X737256Y861330D01*
X736061Y861092D01*
X736036Y861076D01*
X733557Y863554D01*
X733022Y863776D01*
X732486Y863554D01*
X731636Y862705D01*
X731496Y862564D01*
Y862564D01*
X731274Y862029D01*
X731496Y861493D01*
Y861493D01*
X731636Y861352D01*
X733975Y859014D01*
X733958Y858990D01*
X733720Y857794D01*
X732525Y857557D01*
X732501Y857540D01*
X730022Y860019D01*
X729486Y860241D01*
X728950Y860019D01*
X728101Y859169D01*
X727960Y859029D01*
Y859029D01*
X727738Y858493D01*
X727960Y857957D01*
Y857957D01*
X728101Y857817D01*
X730439Y855479D01*
X730423Y855454D01*
X730127Y853968D01*
X730423Y852481D01*
X731265Y851221D01*
X742698Y839788D01*
Y814231D01*
X681241Y752775D01*
X680437Y752990D01*
X678463D01*
X676555Y752479D01*
X674845Y751491D01*
X673448Y750095D01*
X672461Y748385D01*
X671950Y746477D01*
Y744503D01*
X672461Y742595D01*
X673448Y740885D01*
X674845Y739489D01*
X676555Y738501D01*
X678463Y737990D01*
X680437D01*
X682345Y738501D01*
X684055Y739489D01*
X685452Y740885D01*
X686439Y742595D01*
X686950Y744503D01*
Y746477D01*
X686735Y747281D01*
X745512Y806058D01*
X746685Y805572D01*
Y792819D01*
X706641Y752775D01*
X705837Y752990D01*
X703863D01*
X701955Y752479D01*
X700245Y751491D01*
X698848Y750095D01*
X697861Y748385D01*
X697350Y746477D01*
Y744503D01*
X697861Y742595D01*
X698848Y740885D01*
X700245Y739489D01*
X701955Y738501D01*
X703863Y737990D01*
X705837D01*
X707745Y738501D01*
X709455Y739489D01*
X710852Y740885D01*
X711839Y742595D01*
X712350Y744503D01*
Y746477D01*
X712135Y747281D01*
X750074Y785221D01*
X751413Y784763D01*
X751499Y784079D01*
X727503Y760083D01*
X726661Y758822D01*
X726365Y757336D01*
Y751907D01*
X725645Y751491D01*
X724249Y750095D01*
X723261Y748385D01*
X722750Y746477D01*
Y744503D01*
X723261Y742595D01*
X724249Y740885D01*
X725645Y739489D01*
X727355Y738501D01*
X729263Y737990D01*
X731237D01*
X733145Y738501D01*
X734855Y739489D01*
X736252Y740885D01*
X737239Y742595D01*
X737750Y744503D01*
Y746477D01*
X737239Y748385D01*
X736252Y750095D01*
X734855Y751491D01*
X734135Y751907D01*
Y755727D01*
X754402Y775994D01*
X755575Y775508D01*
Y754281D01*
X754146Y752852D01*
X752755Y752479D01*
X751045Y751491D01*
X749649Y750095D01*
X748661Y748385D01*
X748150Y746477D01*
Y744503D01*
X748661Y742595D01*
X749649Y740885D01*
X751045Y739489D01*
X752755Y738501D01*
X754663Y737990D01*
X756637D01*
X758545Y738501D01*
X760255Y739489D01*
X761652Y740885D01*
X762639Y742595D01*
X763150Y744503D01*
Y746477D01*
X762639Y748385D01*
X761917Y749635D01*
X762207Y749925D01*
X763049Y751185D01*
X763345Y752672D01*
Y845766D01*
X764518Y846252D01*
X777165Y833604D01*
Y751907D01*
X776445Y751491D01*
X775049Y750095D01*
X774061Y748385D01*
X773550Y746477D01*
Y744503D01*
X774061Y742595D01*
X775049Y740885D01*
X776445Y739489D01*
X778155Y738501D01*
X780063Y737990D01*
X782037D01*
X783945Y738501D01*
X785655Y739489D01*
X787051Y740885D01*
X788039Y742595D01*
X788550Y744503D01*
Y746477D01*
X788039Y748385D01*
X787051Y750095D01*
X785655Y751491D01*
X784935Y751907D01*
Y831247D01*
X786108Y831733D01*
X802565Y815275D01*
Y751907D01*
X801845Y751491D01*
X800448Y750095D01*
X799461Y748385D01*
X798950Y746477D01*
Y744503D01*
X799461Y742595D01*
X800448Y740885D01*
X801845Y739489D01*
X803555Y738501D01*
X805462Y737990D01*
X807437D01*
X809345Y738501D01*
X811055Y739489D01*
X812451Y740885D01*
X813439Y742595D01*
X813950Y744503D01*
Y746477D01*
X813439Y748385D01*
X812451Y750095D01*
X811055Y751491D01*
X810335Y751907D01*
Y812918D01*
X811508Y813404D01*
X827965Y796946D01*
Y751907D01*
X827245Y751491D01*
X825848Y750095D01*
X824861Y748385D01*
X824350Y746477D01*
Y744503D01*
X824861Y742595D01*
X825848Y740885D01*
X827245Y739489D01*
X828955Y738501D01*
X830863Y737990D01*
X832837D01*
X834745Y738501D01*
X836455Y739489D01*
X837851Y740885D01*
X838839Y742595D01*
X839350Y744503D01*
Y746477D01*
X838839Y748385D01*
X837851Y750095D01*
X836455Y751491D01*
X835735Y751907D01*
Y798556D01*
X835439Y800042D01*
X834597Y801302D01*
X764304Y871595D01*
X764340Y873008D01*
X764659Y873185D01*
X765882Y873172D01*
X853365Y785689D01*
Y751907D01*
X852645Y751491D01*
X851248Y750095D01*
X850261Y748385D01*
X849750Y746477D01*
Y744503D01*
X850261Y742595D01*
X851248Y740885D01*
X852645Y739489D01*
X854355Y738501D01*
X856263Y737990D01*
X858237D01*
X860145Y738501D01*
X861855Y739489D01*
X863251Y740885D01*
X864239Y742595D01*
X864750Y744503D01*
Y746477D01*
X864239Y748385D01*
X863251Y750095D01*
X861855Y751491D01*
X861135Y751907D01*
Y783331D01*
X862308Y783817D01*
X878765Y767360D01*
Y751907D01*
X878045Y751491D01*
X876648Y750095D01*
X875661Y748385D01*
X875150Y746477D01*
Y744503D01*
X875661Y742595D01*
X876648Y740885D01*
X878045Y739489D01*
X879755Y738501D01*
X881663Y737990D01*
X883637D01*
X885545Y738501D01*
X887255Y739489D01*
X888651Y740885D01*
X889639Y742595D01*
X890150Y744503D01*
Y746477D01*
X889639Y748385D01*
X888651Y750095D01*
X887255Y751491D01*
X886535Y751907D01*
Y765002D01*
X887708Y765488D01*
X900779Y752417D01*
X900016Y751655D01*
X898694Y749365D01*
X898010Y746812D01*
Y746760D01*
X908050D01*
Y745490D01*
X909320D01*
Y735450D01*
X909372D01*
X911925Y736134D01*
X914215Y737456D01*
X914563Y737804D01*
X926937D01*
X927285Y737456D01*
X929575Y736134D01*
X932128Y735450D01*
X932180D01*
Y745490D01*
Y755530D01*
X932128D01*
X929575Y754846D01*
X927285Y753524D01*
X926937Y753176D01*
X914563D01*
X914215Y753524D01*
X911925Y754846D01*
X909372Y755530D01*
X908574D01*
X908413Y755771D01*
X799292Y864892D01*
X799778Y866065D01*
X840740D01*
X842227Y866361D01*
X843487Y867203D01*
X855459Y879175D01*
X856263Y878960D01*
X857425D01*
X953671Y782715D01*
Y751120D01*
X953415Y750925D01*
X952194Y749333D01*
X951426Y747479D01*
X951164Y745490D01*
X951426Y743501D01*
X952194Y741647D01*
X953415Y740055D01*
X955007Y738834D01*
X956861Y738066D01*
X958850Y737804D01*
X984250D01*
X986239Y738066D01*
X988093Y738834D01*
X989685Y740055D01*
X990906Y741647D01*
X991674Y743501D01*
X991936Y745490D01*
X991674Y747479D01*
X990906Y749333D01*
X989685Y750925D01*
X988093Y752146D01*
X986239Y752914D01*
X984250Y753176D01*
X964029D01*
Y784860D01*
X963635Y786842D01*
X962513Y788522D01*
X864750Y886285D01*
Y887447D01*
X864239Y889355D01*
X863251Y891065D01*
X861855Y892461D01*
X860145Y893449D01*
X858237Y893960D01*
X856263D01*
X854355Y893449D01*
X852645Y892461D01*
X851248Y891065D01*
X850261Y889355D01*
X849750Y887447D01*
Y885473D01*
X849965Y884669D01*
X839131Y873835D01*
X797420D01*
X775649Y895605D01*
X774389Y896447D01*
X772903Y896743D01*
X771416Y896447D01*
X771391Y896431D01*
X768913Y898910D01*
X768377Y899131D01*
X767841Y898910D01*
X766851Y897920D01*
X765627Y898281D01*
X764642Y898939D01*
X763156Y899235D01*
X758950D01*
X758528Y899657D01*
X756661Y900430D01*
X754640D01*
X754455Y900554D01*
Y905510D01*
X754380Y905885D01*
Y906268D01*
X754234Y906621D01*
X754159Y906997D01*
X753946Y907315D01*
X753800Y907668D01*
X753529Y907939D01*
X753317Y908257D01*
X752999Y908469D01*
X752728Y908740D01*
X752375Y908886D01*
X752057Y909099D01*
X751681Y909174D01*
X751328Y909320D01*
X750945D01*
X750570Y909395D01*
D02*
G37*
G36*
X943490Y744220D02*
X934720D01*
Y735450D01*
X934772D01*
X937325Y736134D01*
X939615Y737456D01*
X941484Y739325D01*
X942806Y741615D01*
X943490Y744168D01*
Y744220D01*
D02*
G37*
G36*
X906780D02*
X898010D01*
Y744168D01*
X898694Y741615D01*
X900016Y739325D01*
X901885Y737456D01*
X904175Y736134D01*
X906728Y735450D01*
X906780D01*
Y744220D01*
D02*
G37*
%LPD*%
G36*
X714243Y942386D02*
X714778Y942164D01*
X715314Y942386D01*
X716304Y943376D01*
X716794Y943473D01*
X720015Y940252D01*
Y919480D01*
X720090Y919105D01*
Y918722D01*
X720236Y918369D01*
X720311Y917993D01*
X720524Y917675D01*
X720670Y917322D01*
X720941Y917051D01*
X721153Y916733D01*
X721471Y916521D01*
X721742Y916250D01*
X722095Y916104D01*
X722413Y915891D01*
X722789Y915816D01*
X723142Y915670D01*
X723525D01*
X723900Y915595D01*
X724275Y915670D01*
X724658D01*
X725011Y915816D01*
X725387Y915891D01*
X725705Y916104D01*
X726058Y916250D01*
X726329Y916521D01*
X726647Y916733D01*
X726859Y917051D01*
X726891Y917083D01*
X728010Y916786D01*
X728161Y916694D01*
Y915265D01*
X716280Y903384D01*
X707597Y912067D01*
X707279Y912279D01*
X707008Y912550D01*
X706655Y912696D01*
X706337Y912909D01*
X705961Y912984D01*
X705608Y913130D01*
X705225D01*
X704850Y913205D01*
X704475Y913130D01*
X704092D01*
X703739Y912984D01*
X703363Y912909D01*
X703045Y912696D01*
X702692Y912550D01*
X702603Y912461D01*
X701971Y912588D01*
X701333Y913026D01*
Y918816D01*
X701037Y920302D01*
X700195Y921562D01*
X698119Y923638D01*
X698159Y925231D01*
X698486Y925558D01*
X698626Y925698D01*
Y925698D01*
X698848Y926234D01*
X698626Y926769D01*
Y926770D01*
X698486Y926910D01*
X696148Y929248D01*
X696164Y929273D01*
X696402Y930468D01*
X697597Y930706D01*
X697622Y930722D01*
X700100Y928244D01*
X700636Y928022D01*
X701172Y928244D01*
X702021Y929093D01*
X702162Y929234D01*
Y929234D01*
X702384Y929769D01*
X702162Y930305D01*
Y930305D01*
X702022Y930445D01*
X699683Y932784D01*
X699700Y932808D01*
X699937Y934004D01*
X701133Y934241D01*
X701157Y934258D01*
X703636Y931779D01*
X704172Y931557D01*
X704707Y931779D01*
X705557Y932629D01*
X705697Y932769D01*
Y932769D01*
X705919Y933305D01*
X705697Y933840D01*
Y933841D01*
X705557Y933981D01*
X703219Y936319D01*
X703235Y936344D01*
X703473Y937539D01*
X704668Y937777D01*
X704693Y937793D01*
X707171Y935315D01*
X707707Y935093D01*
X708243Y935315D01*
X709233Y936305D01*
X709455Y936840D01*
X709233Y937376D01*
X706754Y939855D01*
X706771Y939879D01*
X707009Y941075D01*
X708204Y941312D01*
X708228Y941329D01*
X710707Y938850D01*
X711243Y938628D01*
X711778Y938850D01*
X712628Y939700D01*
X712769Y939840D01*
Y939840D01*
X712990Y940376D01*
X712769Y940911D01*
Y940912D01*
X712628Y941052D01*
X710290Y943390D01*
X710306Y943415D01*
X710544Y944610D01*
X711739Y944848D01*
X711764Y944864D01*
X714243Y942386D01*
D02*
G37*
D16*
X542290Y965200D02*
Y1010680D01*
X542530Y1010920D01*
X527050Y774700D02*
Y790956D01*
X520700Y764540D02*
X546579D01*
X501650Y745490D02*
X520700Y764540D01*
X546579D02*
X674898Y892858D01*
X526796Y791210D02*
X527050Y790956D01*
X657465Y930515D02*
X674898Y913082D01*
X577059Y1010920D02*
X657465Y930515D01*
X648970Y922020D02*
X657465Y930515D01*
X648970Y894080D02*
Y922020D01*
X690880Y852170D02*
Y852221D01*
X703182Y864523D02*
Y864574D01*
X690880Y852221D02*
X703182Y864523D01*
X542530Y1010920D02*
X577059D01*
X508000D02*
X542530D01*
X527268Y1016000D02*
X579050D01*
X520700Y1022568D02*
X527268Y1016000D01*
X520700Y1022568D02*
Y1041400D01*
X579050Y1016000D02*
X678433Y916617D01*
X724613Y984963D02*
Y1016713D01*
X702310Y962660D02*
X724613Y984963D01*
X702310Y958850D02*
Y962660D01*
X705727Y952962D02*
X710253Y948437D01*
X702310Y958850D02*
X705727Y955433D01*
Y952962D02*
Y955433D01*
X737547Y857503D02*
X750570Y844480D01*
Y791210D02*
Y844480D01*
X730250Y757336D02*
X755650Y782736D01*
Y745490D02*
Y748862D01*
X759460Y752672D01*
X755650Y782736D02*
Y846471D01*
X730250Y745490D02*
Y757336D01*
X704850Y745490D02*
X750570Y791210D01*
X759460Y752672D02*
Y849732D01*
X741083Y861039D02*
X755650Y846471D01*
X744618Y864574D02*
X759460Y849732D01*
X781050Y745490D02*
Y835213D01*
X748154Y868110D02*
X781050Y835213D01*
X763156Y895350D02*
X769183Y889323D01*
X755650Y895350D02*
X763156D01*
X769183Y889323D02*
X769367D01*
X709107Y877570D02*
X727710D01*
X699646Y868110D02*
X709107Y877570D01*
X727710Y938565D02*
X737547Y948402D01*
Y948437D01*
X727710Y938530D02*
Y938565D01*
X723900Y919480D02*
Y941861D01*
X713788Y951973D02*
X723900Y941861D01*
X684530Y910590D02*
X690880D01*
X697230Y892810D02*
X697448Y893028D01*
Y918816D01*
X689040Y927224D02*
X697448Y918816D01*
X678503Y916617D02*
X684530Y910590D01*
X678433Y916617D02*
X678503D01*
X916940Y874130D02*
X918660Y875850D01*
X916940Y853440D02*
Y874130D01*
X586740Y881380D02*
X610870Y857250D01*
Y842010D02*
Y857250D01*
X625475Y894080D02*
X626110D01*
X586740Y932180D02*
X587375D01*
X625475Y894080D01*
X552450Y745490D02*
X553017Y746057D01*
Y757487D01*
X665480Y869950D01*
X577850Y774598D02*
X685504Y882252D01*
X577850Y745490D02*
Y774598D01*
X603250Y757571D02*
X706717Y861039D01*
X628650Y745490D02*
Y775900D01*
X710253Y857503D01*
X603250Y745490D02*
Y757571D01*
X654050Y794229D02*
X713788Y853968D01*
X654050Y745490D02*
Y794229D01*
X665480Y869950D02*
X665947D01*
X681785Y885787D01*
X536984Y747874D02*
X678433Y889323D01*
X527050Y745490D02*
X529434Y747874D01*
X536984D01*
X681785Y885787D02*
X681969D01*
X657076Y846753D02*
X689040Y878716D01*
X657076Y843766D02*
Y846753D01*
X709169Y884704D02*
X710714D01*
X696111Y871645D02*
X709169Y884704D01*
X710714D02*
X711200Y885190D01*
X656590Y843280D02*
X657076Y843766D01*
X672316Y852656D02*
Y854921D01*
X671830Y852170D02*
X672316Y852656D01*
Y854921D02*
X692575Y875181D01*
X882650Y933450D02*
X910590Y905510D01*
Y883920D02*
Y905510D01*
X918660Y875850D02*
X943610D01*
X910590Y883920D02*
X918660Y875850D01*
X916940Y891540D02*
Y909320D01*
Y891540D02*
X919630Y888850D01*
X943610D01*
X928370Y881380D02*
X929057D01*
X930027Y882350D01*
X943610D01*
X800891Y941070D02*
X927100D01*
X977900Y991870D01*
X772903Y913082D02*
X800891Y941070D01*
X798900Y946150D02*
X873760D01*
X952500Y1024890D02*
Y1041400D01*
X873760Y946150D02*
X952500Y1024890D01*
X724613Y1016713D02*
X749300Y1041400D01*
X694690Y956929D02*
Y965200D01*
X702310Y972820D01*
Y1019810D01*
X723900Y1041400D01*
X694690Y956929D02*
X706717Y944901D01*
X678180Y966368D02*
Y1021080D01*
X698500Y1041400D01*
X678180Y966368D02*
X703182Y941366D01*
X673100Y964377D02*
Y1041400D01*
Y964377D02*
X699646Y937830D01*
X647700Y982706D02*
Y1041400D01*
Y982706D02*
X696111Y934295D01*
X622300Y1001034D02*
X692575Y930759D01*
X622300Y1001034D02*
Y1041400D01*
X596900Y1012190D02*
Y1041400D01*
Y1012190D02*
X679434Y929656D01*
X572031Y1030090D02*
Y1040869D01*
Y1030090D02*
X681969Y920153D01*
X571500Y1041400D02*
X572031Y1040869D01*
X495300Y1023620D02*
X508000Y1010920D01*
X495300Y1023620D02*
Y1041400D01*
X840740Y869950D02*
X857250Y886460D01*
X772903Y892858D02*
X795811Y869950D01*
X840740D01*
X905666Y747874D02*
X908050Y745490D01*
X769367Y889323D02*
X905666Y753024D01*
Y747874D02*
Y753024D01*
X765831Y885787D02*
X882650Y768969D01*
Y745490D02*
Y768969D01*
X744618Y941366D02*
X774700Y971448D01*
Y1041400D01*
X800100Y989777D02*
Y1041400D01*
X748154Y937830D02*
X800100Y989777D01*
X751689Y934295D02*
X794025Y976630D01*
X806450D01*
X825500Y995680D01*
Y1041400D01*
X755225Y930759D02*
X793475Y969010D01*
X831850D01*
X850900Y988060D01*
X794197Y962660D02*
X839470D01*
X758760Y927224D02*
X794197Y962660D01*
X850900Y988060D02*
Y1041400D01*
X839470Y962660D02*
X876300Y999490D01*
X762296Y923688D02*
X794918Y956310D01*
X847090D01*
X901700Y1010920D01*
X876300Y999490D02*
Y1041400D01*
X901700Y1010920D02*
Y1041400D01*
X765831Y920153D02*
X796909Y951230D01*
X861060D01*
X927100Y1017270D01*
X769367Y916617D02*
X798900Y946150D01*
X927100Y1017270D02*
Y1041400D01*
X977900Y991870D02*
Y1041400D01*
X750570Y886907D02*
Y905510D01*
X758760Y878716D02*
Y878716D01*
X750570Y886907D02*
X758760Y878716D01*
X731217Y949177D02*
X734012Y951973D01*
X731033Y949177D02*
X731217D01*
X720090Y960120D02*
X731033Y949177D01*
X732046Y936298D02*
X733534Y937786D01*
X733783D01*
X732046Y913656D02*
Y936298D01*
X716280Y897890D02*
X732046Y913656D01*
X733783Y937786D02*
X740899Y944901D01*
X741083D01*
X704850Y909320D02*
X716280Y897890D01*
X762296Y882252D02*
X857250Y787298D01*
Y745490D02*
Y787298D01*
X755225Y875181D02*
X831850Y798556D01*
Y745490D02*
Y798556D01*
X806450Y745490D02*
Y816885D01*
X751689Y871645D02*
X806450Y816885D01*
X746582Y812623D02*
Y841397D01*
X679450Y745490D02*
X746582Y812623D01*
X734012Y853968D02*
X746582Y841397D01*
X679434Y929656D02*
X679466D01*
D17*
X690090Y1012910D02*
D03*
X750090D02*
D03*
X690090Y975910D02*
D03*
X750090D02*
D03*
D18*
X509524Y960120D02*
D03*
Y993140D02*
D03*
X526796Y824230D02*
D03*
Y791210D02*
D03*
D19*
X674898Y913082D02*
D03*
X678433Y916617D02*
D03*
X681969Y920153D02*
D03*
X685504Y923688D02*
D03*
X689040Y927224D02*
D03*
X692575Y930759D02*
D03*
X696111Y934295D02*
D03*
X699646Y937830D02*
D03*
X703182Y941366D02*
D03*
X706717Y944901D02*
D03*
X710253Y948437D02*
D03*
X713788Y951973D02*
D03*
X772903Y892858D02*
D03*
X769367Y889323D02*
D03*
X765831Y885787D02*
D03*
X762296Y882252D02*
D03*
X758760Y878716D02*
D03*
X755225Y875181D02*
D03*
X751689Y871645D02*
D03*
X748154Y868110D02*
D03*
X744618Y864574D02*
D03*
X741083Y861039D02*
D03*
X737547Y857503D02*
D03*
X734012Y853968D02*
D03*
D20*
Y951973D02*
D03*
X737547Y948437D02*
D03*
X741083Y944901D02*
D03*
X744618Y941366D02*
D03*
X748154Y937830D02*
D03*
X751689Y934295D02*
D03*
X755225Y930759D02*
D03*
X758760Y927224D02*
D03*
X762296Y923688D02*
D03*
X765831Y920153D02*
D03*
X769367Y916617D02*
D03*
X772903Y913082D02*
D03*
X713788Y853968D02*
D03*
X710253Y857503D02*
D03*
X706717Y861039D02*
D03*
X703182Y864574D02*
D03*
X699646Y868110D02*
D03*
X696111Y871645D02*
D03*
X692575Y875181D02*
D03*
X689040Y878716D02*
D03*
X685504Y882252D02*
D03*
X681969Y885787D02*
D03*
X678433Y889323D02*
D03*
X674898Y892858D02*
D03*
D21*
X542290Y942340D02*
D03*
Y965200D02*
D03*
X525780Y868680D02*
D03*
Y845820D02*
D03*
D22*
X513080Y914400D02*
D03*
X490220D02*
D03*
D23*
X943610Y875850D02*
D03*
Y882350D02*
D03*
Y888850D02*
D03*
Y895350D02*
D03*
Y901850D02*
D03*
D24*
X945860Y856850D02*
D03*
Y920850D02*
D03*
D40*
X970360Y876850D02*
D03*
Y900850D02*
D03*
D41*
X525780Y949960D02*
Y976884D01*
X515239Y987425D02*
X525780Y976884D01*
Y949960D02*
X529590Y946150D01*
X538480D01*
X943610Y901310D02*
X944690Y902390D01*
X538480Y946150D02*
X542290Y942340D01*
X509524Y993140D02*
X510159D01*
X515239Y988060D01*
Y987425D02*
Y988060D01*
X580390Y981710D02*
X595630Y966470D01*
X580390Y981710D02*
Y991870D01*
X567055Y966470D02*
X595630D01*
X542290Y942340D02*
X542925D01*
X567055Y966470D01*
X748590Y1012910D02*
X750090D01*
X742790Y1007110D02*
X748590Y1012910D01*
X740410Y1007110D02*
X742790D01*
X749370Y976630D02*
X750090Y975910D01*
X735330Y976630D02*
X749370D01*
X520700Y1041400D02*
X546100D01*
X490220Y913765D02*
Y914400D01*
X944690Y902390D02*
X945860D01*
X943610Y895350D02*
Y901310D01*
X945860Y902390D02*
Y920850D01*
X857250Y886460D02*
X958850Y784860D01*
Y745490D02*
Y784860D01*
D42*
Y745490D02*
X984250D01*
X490220Y914400D02*
X491490Y913130D01*
X525145Y868680D02*
X525780D01*
X491490Y902335D02*
X525145Y868680D01*
X491490Y902335D02*
Y913130D01*
X525780Y845820D02*
X526288Y845312D01*
Y824738D02*
X526796Y824230D01*
X526288Y824738D02*
Y845312D01*
X945860Y920850D02*
X946360Y921350D01*
X969860D02*
X970360Y921850D01*
X946360Y921350D02*
X969860D01*
X970360Y900850D02*
Y921850D01*
Y876850D02*
Y900850D01*
Y855850D02*
Y876850D01*
X945860Y856850D02*
X965360D01*
X966360Y855850D01*
X970360D01*
X908050Y745490D02*
X933450D01*
X463550Y1009650D02*
X495300Y1041400D01*
X463550Y911860D02*
Y1009650D01*
X510159Y960120D02*
X513080Y957199D01*
Y914400D02*
Y957199D01*
X509524Y960120D02*
X510159D01*
X488315Y911860D02*
X490220Y913765D01*
X463550Y911860D02*
X488315D01*
D43*
X586740Y881380D02*
D03*
Y932180D02*
D03*
D44*
X882650Y911860D02*
D03*
Y886460D02*
D03*
X857250Y911860D02*
D03*
Y886460D02*
D03*
X831850Y911860D02*
D03*
X520700Y1041400D02*
D03*
X546100D02*
D03*
X571500D02*
D03*
X596900D02*
D03*
X622300D02*
D03*
X647700D02*
D03*
X673100D02*
D03*
X698500D02*
D03*
X723900D02*
D03*
X749300D02*
D03*
X774700D02*
D03*
X800100D02*
D03*
X825500D02*
D03*
X850900D02*
D03*
X876300D02*
D03*
X901700D02*
D03*
X927100D02*
D03*
X952500D02*
D03*
X977900D02*
D03*
X984250Y745490D02*
D03*
X958850D02*
D03*
X933450D02*
D03*
X908050D02*
D03*
X882650D02*
D03*
X857250D02*
D03*
X831850D02*
D03*
X806450D02*
D03*
X781050D02*
D03*
X755650D02*
D03*
X730250D02*
D03*
X704850D02*
D03*
X679450D02*
D03*
X654050D02*
D03*
X628650D02*
D03*
X603250D02*
D03*
X577850D02*
D03*
X552450D02*
D03*
X527050D02*
D03*
X463550Y886460D02*
D03*
Y861060D02*
D03*
Y835660D02*
D03*
D45*
X831850Y886460D02*
D03*
X495300Y1041400D02*
D03*
X501650Y745490D02*
D03*
D46*
X970360Y855850D02*
D03*
Y921850D02*
D03*
D47*
X463550Y911860D02*
D03*
D48*
X580390Y991870D02*
D03*
X527050Y774700D02*
D03*
X648970Y894080D02*
D03*
X690880Y852170D02*
D03*
X595630Y966470D02*
D03*
X740410Y1007110D02*
D03*
X735330Y976630D02*
D03*
X755650Y895350D02*
D03*
X727710Y877570D02*
D03*
Y938530D02*
D03*
X690880Y910590D02*
D03*
X916940Y853440D02*
D03*
X610870Y842010D02*
D03*
X626110Y894080D02*
D03*
X665480Y869950D02*
D03*
X656590Y843280D02*
D03*
X671830Y852170D02*
D03*
X882650Y933450D02*
D03*
X928370Y881380D02*
D03*
X916940Y909320D02*
D03*
X697230Y892810D02*
D03*
X750570Y905510D02*
D03*
X720090Y960120D02*
D03*
X711200Y885190D02*
D03*
X716280Y897890D02*
D03*
X704850Y909320D02*
D03*
X723900Y919480D02*
D03*
M02*
