G04*
G04 #@! TF.GenerationSoftware,Altium Limited,Altium Designer,22.6.1 (34)*
G04*
G04 Layer_Color=128*
%FSLAX44Y44*%
%MOMM*%
G71*
G04*
G04 #@! TF.SameCoordinates,A72CB605-F9DB-4195-8002-294397CB98EC*
G04*
G04*
G04 #@! TF.FilePolarity,Positive*
G04*
G01*
G75*
%ADD18R,1.6510X1.5240*%
%ADD21R,1.3970X1.2700*%
%ADD22R,1.2700X1.3970*%
%ADD49R,1.5240X1.6510*%
G04:AMPARAMS|DCode=50|XSize=0.67mm|YSize=1.17mm|CornerRadius=0.0402mm|HoleSize=0mm|Usage=FLASHONLY|Rotation=270.000|XOffset=0mm|YOffset=0mm|HoleType=Round|Shape=RoundedRectangle|*
%AMROUNDEDRECTD50*
21,1,0.6700,1.0896,0,0,270.0*
21,1,0.5896,1.1700,0,0,270.0*
1,1,0.0804,-0.5448,-0.2948*
1,1,0.0804,-0.5448,0.2948*
1,1,0.0804,0.5448,0.2948*
1,1,0.0804,0.5448,-0.2948*
%
%ADD50ROUNDEDRECTD50*%
%ADD51R,1.9000X1.1000*%
D18*
X881380Y996950D02*
D03*
Y963930D02*
D03*
X853440Y996950D02*
D03*
Y963930D02*
D03*
X913130Y995680D02*
D03*
Y962660D02*
D03*
X626110Y842010D02*
D03*
Y875030D02*
D03*
D21*
X916940Y817880D02*
D03*
Y795020D02*
D03*
X894080Y817880D02*
D03*
Y795020D02*
D03*
X730250Y819150D02*
D03*
Y796290D02*
D03*
X645160Y820420D02*
D03*
Y797560D02*
D03*
X596900Y820420D02*
D03*
Y797560D02*
D03*
X703580Y821690D02*
D03*
Y798830D02*
D03*
D22*
X704850Y1010920D02*
D03*
X727710D02*
D03*
X844550Y858520D02*
D03*
X867410D02*
D03*
X844550Y836930D02*
D03*
X867410D02*
D03*
X847090Y775970D02*
D03*
X869950D02*
D03*
D49*
X735330Y976630D02*
D03*
X702310D02*
D03*
X792480Y844550D02*
D03*
X759460D02*
D03*
X754380Y909320D02*
D03*
X787400D02*
D03*
D50*
X870720Y817120D02*
D03*
Y807720D02*
D03*
Y798320D02*
D03*
X846320D02*
D03*
Y817120D02*
D03*
D51*
X673100Y797760D02*
D03*
Y822760D02*
D03*
M02*
