G04*
G04 #@! TF.GenerationSoftware,Altium Limited,Altium Designer,22.6.1 (34)*
G04*
G04 Layer_Physical_Order=2*
G04 Layer_Color=16711680*
%FSLAX44Y44*%
%MOMM*%
G71*
G04*
G04 #@! TF.SameCoordinates,A72CB605-F9DB-4195-8002-294397CB98EC*
G04*
G04*
G04 #@! TF.FilePolarity,Positive*
G04*
G01*
G75*
%ADD16C,0.2540*%
%ADD18R,1.6510X1.5240*%
%ADD21R,1.3970X1.2700*%
%ADD22R,1.2700X1.3970*%
%ADD41C,0.5080*%
%ADD43C,1.9050*%
%ADD44C,1.5000*%
%ADD45R,1.5000X1.5000*%
G04:AMPARAMS|DCode=46|XSize=2mm|YSize=1.2mm|CornerRadius=0.36mm|HoleSize=0mm|Usage=FLASHONLY|Rotation=180.000|XOffset=0mm|YOffset=0mm|HoleType=Round|Shape=RoundedRectangle|*
%AMROUNDEDRECTD46*
21,1,2.0000,0.4800,0,0,180.0*
21,1,1.2800,1.2000,0,0,180.0*
1,1,0.7200,-0.6400,0.2400*
1,1,0.7200,0.6400,0.2400*
1,1,0.7200,0.6400,-0.2400*
1,1,0.7200,-0.6400,-0.2400*
%
%ADD46ROUNDEDRECTD46*%
%ADD47R,1.5000X1.5000*%
%ADD48C,0.5080*%
%ADD49R,1.5240X1.6510*%
G04:AMPARAMS|DCode=50|XSize=0.67mm|YSize=1.17mm|CornerRadius=0.0402mm|HoleSize=0mm|Usage=FLASHONLY|Rotation=270.000|XOffset=0mm|YOffset=0mm|HoleType=Round|Shape=RoundedRectangle|*
%AMROUNDEDRECTD50*
21,1,0.6700,1.0896,0,0,270.0*
21,1,0.5896,1.1700,0,0,270.0*
1,1,0.0804,-0.5448,-0.2948*
1,1,0.0804,-0.5448,0.2948*
1,1,0.0804,0.5448,0.2948*
1,1,0.0804,0.5448,-0.2948*
%
%ADD50ROUNDEDRECTD50*%
%ADD51R,1.9000X1.1000*%
G36*
X999415Y1046141D02*
Y736939D01*
X994071Y731595D01*
X474049D01*
X443305Y762339D01*
Y772160D01*
Y1029675D01*
X443437Y1029763D01*
X470239Y1056565D01*
X988991D01*
X999415Y1046141D01*
D02*
G37*
%LPC*%
G36*
X547422Y1051440D02*
X547370D01*
Y1042670D01*
X556140D01*
Y1042722D01*
X555456Y1045275D01*
X554134Y1047565D01*
X552265Y1049434D01*
X549975Y1050756D01*
X547422Y1051440D01*
D02*
G37*
G36*
X544830D02*
X544778D01*
X542225Y1050756D01*
X539935Y1049434D01*
X538066Y1047565D01*
X536744Y1045275D01*
X536060Y1042722D01*
Y1042670D01*
X544830D01*
Y1051440D01*
D02*
G37*
G36*
X522022D02*
X521970D01*
Y1042670D01*
X530740D01*
Y1042722D01*
X530056Y1045275D01*
X528734Y1047565D01*
X526865Y1049434D01*
X524575Y1050756D01*
X522022Y1051440D01*
D02*
G37*
G36*
X519430D02*
X519378D01*
X516825Y1050756D01*
X514535Y1049434D01*
X512666Y1047565D01*
X511344Y1045275D01*
X510660Y1042722D01*
Y1042670D01*
X519430D01*
Y1051440D01*
D02*
G37*
G36*
X978887Y1048900D02*
X976913D01*
X975005Y1048389D01*
X973295Y1047402D01*
X971898Y1046005D01*
X970911Y1044295D01*
X970400Y1042387D01*
Y1040413D01*
X970911Y1038505D01*
X971898Y1036795D01*
X973295Y1035398D01*
X975005Y1034411D01*
X976913Y1033900D01*
X978887D01*
X980795Y1034411D01*
X982505Y1035398D01*
X983902Y1036795D01*
X984889Y1038505D01*
X985400Y1040413D01*
Y1042387D01*
X984889Y1044295D01*
X983902Y1046005D01*
X982505Y1047402D01*
X980795Y1048389D01*
X978887Y1048900D01*
D02*
G37*
G36*
X953487D02*
X951513D01*
X949605Y1048389D01*
X947895Y1047402D01*
X946498Y1046005D01*
X945511Y1044295D01*
X945000Y1042387D01*
Y1040413D01*
X945511Y1038505D01*
X946498Y1036795D01*
X947895Y1035398D01*
X949605Y1034411D01*
X951513Y1033900D01*
X953487D01*
X955395Y1034411D01*
X957105Y1035398D01*
X958502Y1036795D01*
X959489Y1038505D01*
X960000Y1040413D01*
Y1042387D01*
X959489Y1044295D01*
X958502Y1046005D01*
X957105Y1047402D01*
X955395Y1048389D01*
X953487Y1048900D01*
D02*
G37*
G36*
X928087D02*
X926113D01*
X924205Y1048389D01*
X922495Y1047402D01*
X921098Y1046005D01*
X920111Y1044295D01*
X919600Y1042387D01*
Y1040413D01*
X920111Y1038505D01*
X921098Y1036795D01*
X922495Y1035398D01*
X924205Y1034411D01*
X926113Y1033900D01*
X928087D01*
X929995Y1034411D01*
X931705Y1035398D01*
X933102Y1036795D01*
X934089Y1038505D01*
X934600Y1040413D01*
Y1042387D01*
X934089Y1044295D01*
X933102Y1046005D01*
X931705Y1047402D01*
X929995Y1048389D01*
X928087Y1048900D01*
D02*
G37*
G36*
X902688D02*
X900713D01*
X898805Y1048389D01*
X897095Y1047402D01*
X895699Y1046005D01*
X894711Y1044295D01*
X894200Y1042387D01*
Y1040413D01*
X894711Y1038505D01*
X895699Y1036795D01*
X897095Y1035398D01*
X898805Y1034411D01*
X900713Y1033900D01*
X902688D01*
X904595Y1034411D01*
X906305Y1035398D01*
X907701Y1036795D01*
X908689Y1038505D01*
X909200Y1040413D01*
Y1042387D01*
X908689Y1044295D01*
X907701Y1046005D01*
X906305Y1047402D01*
X904595Y1048389D01*
X902688Y1048900D01*
D02*
G37*
G36*
X877287D02*
X875313D01*
X873405Y1048389D01*
X871695Y1047402D01*
X870298Y1046005D01*
X869311Y1044295D01*
X868800Y1042387D01*
Y1040413D01*
X869311Y1038505D01*
X870298Y1036795D01*
X871695Y1035398D01*
X873405Y1034411D01*
X875313Y1033900D01*
X877287D01*
X879195Y1034411D01*
X880905Y1035398D01*
X882301Y1036795D01*
X883289Y1038505D01*
X883800Y1040413D01*
Y1042387D01*
X883289Y1044295D01*
X882301Y1046005D01*
X880905Y1047402D01*
X879195Y1048389D01*
X877287Y1048900D01*
D02*
G37*
G36*
X851887D02*
X849913D01*
X848005Y1048389D01*
X846295Y1047402D01*
X844899Y1046005D01*
X843911Y1044295D01*
X843400Y1042387D01*
Y1040413D01*
X843911Y1038505D01*
X844899Y1036795D01*
X846295Y1035398D01*
X848005Y1034411D01*
X849913Y1033900D01*
X851887D01*
X853795Y1034411D01*
X855505Y1035398D01*
X856901Y1036795D01*
X857889Y1038505D01*
X858400Y1040413D01*
Y1042387D01*
X857889Y1044295D01*
X856901Y1046005D01*
X855505Y1047402D01*
X853795Y1048389D01*
X851887Y1048900D01*
D02*
G37*
G36*
X826487D02*
X824513D01*
X822605Y1048389D01*
X820895Y1047402D01*
X819499Y1046005D01*
X818511Y1044295D01*
X818000Y1042387D01*
Y1040413D01*
X818511Y1038505D01*
X819499Y1036795D01*
X820895Y1035398D01*
X822605Y1034411D01*
X824513Y1033900D01*
X826487D01*
X828395Y1034411D01*
X830105Y1035398D01*
X831501Y1036795D01*
X832489Y1038505D01*
X833000Y1040413D01*
Y1042387D01*
X832489Y1044295D01*
X831501Y1046005D01*
X830105Y1047402D01*
X828395Y1048389D01*
X826487Y1048900D01*
D02*
G37*
G36*
X750287D02*
X748313D01*
X746405Y1048389D01*
X744695Y1047402D01*
X743298Y1046005D01*
X742311Y1044295D01*
X741800Y1042387D01*
Y1040413D01*
X742311Y1038505D01*
X743298Y1036795D01*
X744695Y1035398D01*
X746405Y1034411D01*
X748313Y1033900D01*
X750287D01*
X752195Y1034411D01*
X753905Y1035398D01*
X755302Y1036795D01*
X756289Y1038505D01*
X756800Y1040413D01*
Y1042387D01*
X756289Y1044295D01*
X755302Y1046005D01*
X753905Y1047402D01*
X752195Y1048389D01*
X750287Y1048900D01*
D02*
G37*
G36*
X724887D02*
X722913D01*
X721005Y1048389D01*
X719295Y1047402D01*
X717898Y1046005D01*
X716911Y1044295D01*
X716400Y1042387D01*
Y1040413D01*
X716911Y1038505D01*
X717898Y1036795D01*
X719295Y1035398D01*
X721005Y1034411D01*
X722913Y1033900D01*
X724887D01*
X726795Y1034411D01*
X728505Y1035398D01*
X729902Y1036795D01*
X730889Y1038505D01*
X731400Y1040413D01*
Y1042387D01*
X730889Y1044295D01*
X729902Y1046005D01*
X728505Y1047402D01*
X726795Y1048389D01*
X724887Y1048900D01*
D02*
G37*
G36*
X699487D02*
X697513D01*
X695605Y1048389D01*
X693895Y1047402D01*
X692498Y1046005D01*
X691511Y1044295D01*
X691000Y1042387D01*
Y1040413D01*
X691511Y1038505D01*
X692498Y1036795D01*
X693895Y1035398D01*
X695605Y1034411D01*
X697513Y1033900D01*
X699487D01*
X701395Y1034411D01*
X703105Y1035398D01*
X704501Y1036795D01*
X705489Y1038505D01*
X706000Y1040413D01*
Y1042387D01*
X705489Y1044295D01*
X704501Y1046005D01*
X703105Y1047402D01*
X701395Y1048389D01*
X699487Y1048900D01*
D02*
G37*
G36*
X674088D02*
X672113D01*
X670205Y1048389D01*
X668495Y1047402D01*
X667099Y1046005D01*
X666111Y1044295D01*
X665600Y1042387D01*
Y1040413D01*
X666111Y1038505D01*
X667099Y1036795D01*
X668495Y1035398D01*
X670205Y1034411D01*
X672113Y1033900D01*
X674088D01*
X675995Y1034411D01*
X677705Y1035398D01*
X679101Y1036795D01*
X680089Y1038505D01*
X680600Y1040413D01*
Y1042387D01*
X680089Y1044295D01*
X679101Y1046005D01*
X677705Y1047402D01*
X675995Y1048389D01*
X674088Y1048900D01*
D02*
G37*
G36*
X648687D02*
X646713D01*
X644805Y1048389D01*
X643095Y1047402D01*
X641699Y1046005D01*
X640711Y1044295D01*
X640200Y1042387D01*
Y1040413D01*
X640711Y1038505D01*
X641699Y1036795D01*
X643095Y1035398D01*
X644805Y1034411D01*
X646713Y1033900D01*
X648687D01*
X650595Y1034411D01*
X652305Y1035398D01*
X653701Y1036795D01*
X654689Y1038505D01*
X655200Y1040413D01*
Y1042387D01*
X654689Y1044295D01*
X653701Y1046005D01*
X652305Y1047402D01*
X650595Y1048389D01*
X648687Y1048900D01*
D02*
G37*
G36*
X623287D02*
X621313D01*
X619405Y1048389D01*
X617695Y1047402D01*
X616298Y1046005D01*
X615311Y1044295D01*
X614800Y1042387D01*
Y1040413D01*
X615311Y1038505D01*
X616298Y1036795D01*
X617695Y1035398D01*
X619405Y1034411D01*
X621313Y1033900D01*
X623287D01*
X625195Y1034411D01*
X626905Y1035398D01*
X628302Y1036795D01*
X629289Y1038505D01*
X629800Y1040413D01*
Y1042387D01*
X629289Y1044295D01*
X628302Y1046005D01*
X626905Y1047402D01*
X625195Y1048389D01*
X623287Y1048900D01*
D02*
G37*
G36*
X597887D02*
X595913D01*
X594005Y1048389D01*
X592295Y1047402D01*
X590899Y1046005D01*
X589911Y1044295D01*
X589400Y1042387D01*
Y1040413D01*
X589911Y1038505D01*
X590899Y1036795D01*
X592295Y1035398D01*
X594005Y1034411D01*
X595913Y1033900D01*
X597887D01*
X599795Y1034411D01*
X601505Y1035398D01*
X602901Y1036795D01*
X603889Y1038505D01*
X604400Y1040413D01*
Y1042387D01*
X603889Y1044295D01*
X602901Y1046005D01*
X601505Y1047402D01*
X599795Y1048389D01*
X597887Y1048900D01*
D02*
G37*
G36*
X572487D02*
X570513D01*
X568605Y1048389D01*
X566895Y1047402D01*
X565499Y1046005D01*
X564511Y1044295D01*
X564000Y1042387D01*
Y1040413D01*
X564511Y1038505D01*
X565499Y1036795D01*
X566895Y1035398D01*
X568605Y1034411D01*
X570513Y1033900D01*
X572487D01*
X574395Y1034411D01*
X576105Y1035398D01*
X577501Y1036795D01*
X578489Y1038505D01*
X579000Y1040413D01*
Y1042387D01*
X578489Y1044295D01*
X577501Y1046005D01*
X576105Y1047402D01*
X574395Y1048389D01*
X572487Y1048900D01*
D02*
G37*
G36*
X556140Y1040130D02*
X547370D01*
Y1031360D01*
X547422D01*
X549975Y1032044D01*
X552265Y1033366D01*
X554134Y1035235D01*
X555456Y1037525D01*
X556140Y1040078D01*
Y1040130D01*
D02*
G37*
G36*
X544830D02*
X536060D01*
Y1040078D01*
X536744Y1037525D01*
X538066Y1035235D01*
X539935Y1033366D01*
X542225Y1032044D01*
X544778Y1031360D01*
X544830D01*
Y1040130D01*
D02*
G37*
G36*
X530740D02*
X521970D01*
Y1031360D01*
X522022D01*
X524575Y1032044D01*
X526865Y1033366D01*
X528734Y1035235D01*
X530056Y1037525D01*
X530740Y1040078D01*
Y1040130D01*
D02*
G37*
G36*
X519430D02*
X510660D01*
Y1040078D01*
X511344Y1037525D01*
X512666Y1035235D01*
X514535Y1033366D01*
X516825Y1032044D01*
X519378Y1031360D01*
X519430D01*
Y1040130D01*
D02*
G37*
G36*
X713740Y1020445D02*
X706120D01*
Y1012190D01*
X713740D01*
Y1020445D01*
D02*
G37*
G36*
X734060Y1017905D02*
X721360D01*
Y1003935D01*
X727370D01*
X727858Y1003447D01*
X729538Y1002325D01*
X731520Y1001930D01*
X740410D01*
X742392Y1002325D01*
X744072Y1003447D01*
X745195Y1005128D01*
X745590Y1007110D01*
X745195Y1009092D01*
X744072Y1010772D01*
X742392Y1011895D01*
X740410Y1012290D01*
X734060D01*
Y1017905D01*
D02*
G37*
G36*
X713740Y1009650D02*
X706120D01*
Y1001395D01*
X713740D01*
Y1009650D01*
D02*
G37*
G36*
X703580Y1020445D02*
X695960D01*
Y1016099D01*
X599440D01*
X597458Y1015705D01*
X595778Y1014583D01*
X576727Y995533D01*
X576444Y995108D01*
X576083Y994748D01*
X575888Y994276D01*
X575605Y993852D01*
X575505Y993352D01*
X575310Y992880D01*
Y992370D01*
X575210Y991870D01*
X575310Y991370D01*
Y990860D01*
X575505Y990388D01*
X575605Y989888D01*
X575888Y989464D01*
X576083Y988992D01*
X576444Y988632D01*
X576727Y988207D01*
X577152Y987924D01*
X577512Y987563D01*
X577984Y987368D01*
X578408Y987085D01*
X578908Y986985D01*
X579380Y986790D01*
X579890D01*
X580390Y986691D01*
X580890Y986790D01*
X581400D01*
X581872Y986985D01*
X582372Y987085D01*
X582796Y987368D01*
X583268Y987563D01*
X583628Y987924D01*
X584053Y988207D01*
X601585Y1005741D01*
X695960D01*
Y1001395D01*
X703580D01*
Y1010920D01*
Y1020445D01*
D02*
G37*
G36*
X775687Y1048900D02*
X773713D01*
X771805Y1048389D01*
X770095Y1047402D01*
X768699Y1046005D01*
X767711Y1044295D01*
X767200Y1042387D01*
Y1040413D01*
X767711Y1038505D01*
X768699Y1036795D01*
X769520Y1035973D01*
Y1028700D01*
X769915Y1026718D01*
X771038Y1025038D01*
X802787Y993288D01*
X804468Y992165D01*
X806450Y991770D01*
X845185D01*
Y989330D01*
X861695D01*
Y991770D01*
X873125D01*
Y989330D01*
X889635D01*
Y1004570D01*
X873125D01*
Y1002130D01*
X861695D01*
Y1004570D01*
X845185D01*
Y1002130D01*
X808596D01*
X779880Y1030845D01*
Y1035973D01*
X780702Y1036795D01*
X781689Y1038505D01*
X782200Y1040413D01*
Y1042387D01*
X781689Y1044295D01*
X780702Y1046005D01*
X779305Y1047402D01*
X777595Y1048389D01*
X775687Y1048900D01*
D02*
G37*
G36*
X801087D02*
X799113D01*
X797205Y1048389D01*
X795495Y1047402D01*
X794099Y1046005D01*
X793111Y1044295D01*
X792600Y1042387D01*
Y1040413D01*
X793111Y1038505D01*
X794099Y1036795D01*
X795495Y1035398D01*
X797205Y1034411D01*
X799113Y1033900D01*
X800275D01*
X819297Y1014877D01*
X820978Y1013755D01*
X822960Y1013361D01*
X887489D01*
X904875Y995975D01*
Y988060D01*
X921385D01*
Y1003300D01*
X912200D01*
X893298Y1022203D01*
X891617Y1023325D01*
X889635Y1023719D01*
X825105D01*
X807600Y1041225D01*
Y1042387D01*
X807089Y1044295D01*
X806102Y1046005D01*
X804705Y1047402D01*
X802995Y1048389D01*
X801087Y1048900D01*
D02*
G37*
G36*
X889635Y971550D02*
X873125D01*
Y956310D01*
X877495D01*
Y944880D01*
X877791Y943393D01*
X878633Y942133D01*
X882162Y938605D01*
X881636Y937335D01*
X877909D01*
X864310Y950934D01*
Y957580D01*
X864014Y959067D01*
X863172Y960327D01*
X861695Y961804D01*
Y971550D01*
X845185D01*
Y956310D01*
X856201D01*
X856540Y955971D01*
Y949325D01*
X856836Y947838D01*
X857678Y946578D01*
X873553Y930703D01*
X874813Y929861D01*
X876300Y929565D01*
X882650D01*
X883025Y929640D01*
X883408D01*
X883761Y929786D01*
X884137Y929861D01*
X884455Y930074D01*
X884808Y930220D01*
X885079Y930491D01*
X885397Y930703D01*
X885609Y931021D01*
X885880Y931292D01*
X886026Y931645D01*
X886239Y931963D01*
X886314Y932339D01*
X886407Y932563D01*
X886998Y932838D01*
X887686Y933024D01*
X887744Y933022D01*
X914193Y906573D01*
X914511Y906361D01*
X914782Y906090D01*
X915135Y905944D01*
X915453Y905731D01*
X915829Y905656D01*
X916182Y905510D01*
X916565D01*
X916940Y905435D01*
X917315Y905510D01*
X917698D01*
X918051Y905656D01*
X918427Y905731D01*
X918745Y905944D01*
X919098Y906090D01*
X919369Y906361D01*
X919687Y906573D01*
X919899Y906891D01*
X920170Y907162D01*
X920316Y907515D01*
X920529Y907833D01*
X920604Y908209D01*
X920750Y908562D01*
Y908945D01*
X920825Y909320D01*
X920750Y909695D01*
Y910078D01*
X920604Y910431D01*
X920529Y910807D01*
X920316Y911125D01*
X920170Y911478D01*
X919899Y911749D01*
X919687Y912067D01*
X885265Y946489D01*
Y956310D01*
X889635D01*
Y971550D01*
D02*
G37*
G36*
X976760Y930510D02*
X971630D01*
Y923120D01*
X983020D01*
Y924250D01*
X982544Y926646D01*
X981187Y928677D01*
X979156Y930034D01*
X976760Y930510D01*
D02*
G37*
G36*
X969090D02*
X963960D01*
X961564Y930034D01*
X959533Y928677D01*
X958176Y926646D01*
X957700Y924250D01*
Y923120D01*
X969090D01*
Y930510D01*
D02*
G37*
G36*
X587994Y941705D02*
X585486D01*
X583064Y941056D01*
X580891Y939802D01*
X579118Y938028D01*
X577864Y935856D01*
X577215Y933434D01*
Y930926D01*
X577864Y928503D01*
X579118Y926331D01*
X580891Y924558D01*
X583064Y923304D01*
X585486Y922655D01*
X587994D01*
X590416Y923304D01*
X592589Y924558D01*
X594362Y926331D01*
X595616Y928503D01*
X596265Y930926D01*
Y933434D01*
X595616Y935856D01*
X594362Y938028D01*
X592589Y939802D01*
X590416Y941056D01*
X587994Y941705D01*
D02*
G37*
G36*
X832837Y919360D02*
X830863D01*
X828955Y918849D01*
X827245Y917861D01*
X826423Y917039D01*
X795020D01*
Y917575D01*
X779780D01*
Y901065D01*
X795020D01*
Y906681D01*
X826423D01*
X827245Y905859D01*
X828955Y904871D01*
X830863Y904360D01*
X832837D01*
X834745Y904871D01*
X836455Y905859D01*
X837851Y907255D01*
X838839Y908965D01*
X839350Y910873D01*
Y912847D01*
X838839Y914755D01*
X837851Y916465D01*
X836455Y917861D01*
X834745Y918849D01*
X832837Y919360D01*
D02*
G37*
G36*
X983020Y920580D02*
X971630D01*
Y913190D01*
X976760D01*
X979156Y913666D01*
X981187Y915023D01*
X982544Y917054D01*
X983020Y919450D01*
Y920580D01*
D02*
G37*
G36*
X969090D02*
X957700D01*
Y919450D01*
X958176Y917054D01*
X959533Y915023D01*
X961564Y913666D01*
X963960Y913190D01*
X969090D01*
Y920580D01*
D02*
G37*
G36*
X883972Y921900D02*
X883920D01*
Y913130D01*
X892690D01*
Y913182D01*
X892006Y915735D01*
X890684Y918025D01*
X888815Y919894D01*
X886525Y921216D01*
X883972Y921900D01*
D02*
G37*
G36*
X881380D02*
X881328D01*
X878775Y921216D01*
X876485Y919894D01*
X874616Y918025D01*
X873294Y915735D01*
X872610Y913182D01*
Y913130D01*
X881380D01*
Y921900D01*
D02*
G37*
G36*
X471050Y919360D02*
X456050D01*
Y904360D01*
X471050D01*
Y919360D01*
D02*
G37*
G36*
X892690Y910590D02*
X872610D01*
Y910538D01*
X873294Y907985D01*
X874616Y905695D01*
X876485Y903826D01*
X877470Y903257D01*
Y895063D01*
X876485Y894494D01*
X874616Y892625D01*
X873294Y890335D01*
X872610Y887782D01*
Y887730D01*
X892690D01*
Y887782D01*
X892006Y890335D01*
X890684Y892625D01*
X888815Y894494D01*
X887830Y895063D01*
Y903257D01*
X888815Y903826D01*
X890684Y905695D01*
X892006Y907985D01*
X892690Y910538D01*
Y910590D01*
D02*
G37*
G36*
X762000Y917575D02*
X746760D01*
Y905885D01*
X746685Y905510D01*
X746760Y905135D01*
Y901065D01*
X752065D01*
X752607Y899795D01*
X752070Y899235D01*
X745490D01*
X744003Y898939D01*
X742743Y898097D01*
X727296Y882650D01*
X726700D01*
X724832Y881877D01*
X723403Y880448D01*
X722738Y878840D01*
X727710D01*
Y877570D01*
X728980D01*
Y872598D01*
X730588Y873263D01*
X732017Y874692D01*
X732790Y876560D01*
Y877156D01*
X747099Y891465D01*
X751765D01*
Y883920D01*
X752061Y882433D01*
X752903Y881173D01*
X754163Y880331D01*
X755650Y880035D01*
X757137Y880331D01*
X758397Y881173D01*
X759239Y882433D01*
X759535Y883920D01*
Y892050D01*
X759957Y892472D01*
X760622Y894080D01*
X755650D01*
Y896620D01*
X760622D01*
X759957Y898228D01*
X758528Y899657D01*
X758194Y899795D01*
X758446Y901065D01*
X762000D01*
Y917575D01*
D02*
G37*
G36*
X921385Y970280D02*
X904875D01*
Y955040D01*
X909245D01*
Y926809D01*
X909541Y925322D01*
X910383Y924062D01*
X924485Y909960D01*
Y881380D01*
X924560Y881005D01*
Y880622D01*
X924706Y880269D01*
X924781Y879893D01*
X924994Y879575D01*
X925140Y879222D01*
X925411Y878951D01*
X925623Y878633D01*
X925941Y878421D01*
X926212Y878150D01*
X926565Y878004D01*
X926883Y877791D01*
X927259Y877716D01*
X927612Y877570D01*
X927995D01*
X928370Y877495D01*
X928745Y877570D01*
X929128D01*
X929481Y877716D01*
X929857Y877791D01*
X930175Y878004D01*
X930528Y878150D01*
X930799Y878421D01*
X931117Y878633D01*
X931329Y878951D01*
X931600Y879222D01*
X931746Y879575D01*
X931959Y879893D01*
X932034Y880269D01*
X932180Y880622D01*
Y881005D01*
X932255Y881380D01*
Y911569D01*
X931959Y913055D01*
X931117Y914315D01*
X917015Y928418D01*
Y955040D01*
X921385D01*
Y970280D01*
D02*
G37*
G36*
X726440Y876300D02*
X722738D01*
X723403Y874692D01*
X724832Y873263D01*
X726440Y872598D01*
Y876300D01*
D02*
G37*
G36*
X892690Y885190D02*
X872610D01*
Y885138D01*
X873294Y882585D01*
X874616Y880295D01*
X875572Y879339D01*
Y874642D01*
X868975Y868045D01*
X868680D01*
Y859790D01*
X876300D01*
Y860720D01*
X884414Y868834D01*
X885537Y870515D01*
X885931Y872497D01*
Y876945D01*
X886525Y877104D01*
X888815Y878426D01*
X890684Y880295D01*
X892006Y882585D01*
X892690Y885138D01*
Y885190D01*
D02*
G37*
G36*
X866140Y868045D02*
X858520D01*
Y859790D01*
X866140D01*
Y868045D01*
D02*
G37*
G36*
X976760Y864510D02*
X971630D01*
Y857120D01*
X983020D01*
Y858250D01*
X982544Y860646D01*
X981187Y862677D01*
X979156Y864034D01*
X976760Y864510D01*
D02*
G37*
G36*
X969090D02*
X963960D01*
X961564Y864034D01*
X959533Y862677D01*
X958176Y860646D01*
X957700Y858250D01*
Y857120D01*
X969090D01*
Y864510D01*
D02*
G37*
G36*
X464872Y845700D02*
X464820D01*
Y836930D01*
X473590D01*
Y836982D01*
X472906Y839535D01*
X471584Y841825D01*
X469715Y843694D01*
X467425Y845016D01*
X464872Y845700D01*
D02*
G37*
G36*
X876300Y857250D02*
X867410D01*
X858520D01*
Y848995D01*
X862231D01*
Y846455D01*
X858520D01*
Y838200D01*
X867410D01*
Y836930D01*
D01*
Y838200D01*
X876300D01*
Y846455D01*
X872589D01*
Y848995D01*
X876300D01*
Y857250D01*
D02*
G37*
G36*
X462280Y845700D02*
X462228D01*
X459675Y845016D01*
X457385Y843694D01*
X455516Y841825D01*
X454194Y839535D01*
X453510Y836982D01*
Y836930D01*
X462280D01*
Y845700D01*
D02*
G37*
G36*
X839350Y893960D02*
X824350D01*
Y886285D01*
X793897Y855833D01*
X792775Y854152D01*
X792507Y852805D01*
X784860D01*
Y836295D01*
X800100D01*
Y844845D01*
X801223Y845967D01*
X802345Y847648D01*
X802739Y849630D01*
Y850024D01*
X831675Y878960D01*
X839350D01*
Y893960D01*
D02*
G37*
G36*
X876300Y835660D02*
X868680D01*
Y827405D01*
X876300D01*
Y835660D01*
D02*
G37*
G36*
X866140D02*
X858520D01*
Y827405D01*
X866140D01*
Y835660D01*
D02*
G37*
G36*
X462280Y834390D02*
X453510D01*
Y834338D01*
X454194Y831785D01*
X455516Y829495D01*
X457385Y827626D01*
X459675Y826304D01*
X462228Y825620D01*
X462280D01*
Y834390D01*
D02*
G37*
G36*
X916940Y857325D02*
X916565Y857250D01*
X916182D01*
X915829Y857104D01*
X915453Y857029D01*
X915135Y856816D01*
X914782Y856670D01*
X914511Y856399D01*
X914193Y856187D01*
X913981Y855869D01*
X913710Y855598D01*
X913564Y855245D01*
X913351Y854927D01*
X913276Y854551D01*
X913130Y854198D01*
Y853815D01*
X913055Y853440D01*
Y824230D01*
X909955D01*
Y821765D01*
X901065D01*
Y824230D01*
X887095D01*
Y821005D01*
X860300D01*
X858813Y820709D01*
X857553Y819867D01*
X855773Y818087D01*
X854931Y816827D01*
X854635Y815340D01*
Y801370D01*
X854931Y799883D01*
X855773Y798623D01*
X858313Y796083D01*
X859573Y795241D01*
X861060Y794945D01*
X865252D01*
X865272Y794937D01*
X868925D01*
X869233Y794731D01*
X870720Y794435D01*
X872207Y794731D01*
X872515Y794937D01*
X876168D01*
X876476Y795064D01*
X876603Y795372D01*
Y801268D01*
X877316Y802001D01*
X878289Y802651D01*
X878383Y802792D01*
X880005Y802967D01*
X884555Y798416D01*
Y796290D01*
X892810D01*
Y803910D01*
X890049D01*
X883492Y810467D01*
X882232Y811309D01*
X880745Y811605D01*
X880087D01*
X879871Y811965D01*
X880590Y813235D01*
X887095D01*
Y811530D01*
X901065D01*
Y813995D01*
X909955D01*
Y811530D01*
X923925D01*
Y824230D01*
X920825D01*
Y853440D01*
X920750Y853815D01*
Y854198D01*
X920604Y854551D01*
X920529Y854927D01*
X920316Y855245D01*
X920170Y855598D01*
X919899Y855869D01*
X919687Y856187D01*
X919369Y856399D01*
X919098Y856670D01*
X918745Y856816D01*
X918427Y857029D01*
X918051Y857104D01*
X917698Y857250D01*
X917315D01*
X916940Y857325D01*
D02*
G37*
G36*
X502800Y1048900D02*
X487800D01*
Y1033900D01*
X495475D01*
X556408Y972968D01*
X558088Y971845D01*
X560070Y971451D01*
X560070Y971451D01*
X591630D01*
X591671Y971395D01*
X592039Y970181D01*
X591968Y970133D01*
X591684Y969708D01*
X591323Y969348D01*
X591128Y968876D01*
X590845Y968452D01*
X590745Y967952D01*
X590550Y967480D01*
Y966970D01*
X590451Y966470D01*
X590550Y965970D01*
Y965460D01*
X590745Y964988D01*
X590845Y964488D01*
X591128Y964064D01*
X591323Y963592D01*
X591684Y963232D01*
X591968Y962807D01*
X619907Y934867D01*
X621588Y933745D01*
X623570Y933351D01*
X715377D01*
X715863Y932177D01*
X698161Y914475D01*
X694180D01*
X693758Y914897D01*
X691890Y915670D01*
X691294D01*
X682197Y924767D01*
X680937Y925609D01*
X679450Y925905D01*
X678180D01*
X676693Y925609D01*
X675433Y924767D01*
X674591Y923507D01*
X674295Y922020D01*
X674591Y920533D01*
X675433Y919273D01*
X676693Y918431D01*
X677757Y918220D01*
X685312Y910665D01*
X684786Y909395D01*
X521970D01*
X520483Y909099D01*
X519223Y908257D01*
X501311Y890345D01*
X469967D01*
X469552Y891065D01*
X468155Y892461D01*
X466445Y893449D01*
X464537Y893960D01*
X462563D01*
X460655Y893449D01*
X458945Y892461D01*
X457548Y891065D01*
X456561Y889355D01*
X456050Y887447D01*
Y885473D01*
X456561Y883565D01*
X457548Y881855D01*
X458945Y880459D01*
X460655Y879471D01*
X462563Y878960D01*
X464537D01*
X466445Y879471D01*
X468155Y880459D01*
X469552Y881855D01*
X469967Y882575D01*
X500772D01*
X501258Y881402D01*
X484801Y864945D01*
X469967D01*
X469552Y865665D01*
X468155Y867061D01*
X466445Y868049D01*
X464537Y868560D01*
X462563D01*
X460655Y868049D01*
X458945Y867061D01*
X457548Y865665D01*
X456561Y863955D01*
X456050Y862047D01*
Y860073D01*
X456561Y858165D01*
X457548Y856455D01*
X458945Y855059D01*
X460655Y854071D01*
X462563Y853560D01*
X464537D01*
X466445Y854071D01*
X468155Y855059D01*
X469552Y856455D01*
X469967Y857175D01*
X486410D01*
X487897Y857471D01*
X489157Y858313D01*
X515959Y885115D01*
X576565D01*
X577540Y883845D01*
X577215Y882634D01*
Y880126D01*
X577864Y877703D01*
X579118Y875531D01*
X580891Y873758D01*
X583064Y872504D01*
X585486Y871855D01*
X587994D01*
X590416Y872504D01*
X592589Y873758D01*
X594362Y875531D01*
X595616Y877703D01*
X596265Y880126D01*
Y882634D01*
X595616Y885057D01*
X594362Y887228D01*
X592589Y889002D01*
X590416Y890256D01*
X588226Y890843D01*
X587627Y892040D01*
X593403Y897815D01*
X622612D01*
X622831Y897527D01*
X623175Y896545D01*
X623151Y896509D01*
X622880Y896238D01*
X622734Y895885D01*
X622521Y895567D01*
X622446Y895191D01*
X622300Y894838D01*
Y894455D01*
X622225Y894080D01*
Y882650D01*
X617855D01*
Y874735D01*
X593237Y850117D01*
X592115Y848437D01*
X591721Y846455D01*
Y826770D01*
X589915D01*
Y814070D01*
X603885D01*
Y826770D01*
X602080D01*
Y844309D01*
X625180Y867410D01*
X628871D01*
X646858Y849423D01*
X648118Y848581D01*
X649605Y848285D01*
X655652D01*
X655832Y847090D01*
X655479Y846944D01*
X655103Y846869D01*
X654785Y846656D01*
X654432Y846510D01*
X654161Y846239D01*
X653843Y846027D01*
X642413Y834597D01*
X641571Y833337D01*
X641431Y832635D01*
X640053Y832217D01*
X637005Y835265D01*
Y836930D01*
X636610Y838912D01*
X635488Y840592D01*
X634365Y841715D01*
Y849630D01*
X617855D01*
Y845895D01*
X610870D01*
X610495Y845820D01*
X610112D01*
X609759Y845674D01*
X609383Y845599D01*
X609065Y845386D01*
X608712Y845240D01*
X608441Y844969D01*
X608123Y844757D01*
X607911Y844439D01*
X607640Y844168D01*
X607494Y843815D01*
X607281Y843497D01*
X607206Y843121D01*
X607060Y842768D01*
Y842385D01*
X606985Y842010D01*
X607060Y841635D01*
Y841252D01*
X607206Y840899D01*
X607281Y840523D01*
X607494Y840205D01*
X607640Y839852D01*
X607911Y839581D01*
X608123Y839263D01*
X608441Y839051D01*
X608712Y838780D01*
X609065Y838634D01*
X609383Y838421D01*
X609759Y838346D01*
X610112Y838200D01*
X610495D01*
X610870Y838125D01*
X617855D01*
Y834390D01*
X626646D01*
Y833120D01*
X627040Y831138D01*
X628162Y829457D01*
X638175Y819445D01*
Y814070D01*
X652145D01*
Y826770D01*
X649045D01*
Y830241D01*
X659337Y840533D01*
X659549Y840851D01*
X659820Y841122D01*
X659966Y841475D01*
X660179Y841793D01*
X660254Y842169D01*
X660400Y842522D01*
Y842905D01*
X660475Y843280D01*
X660400Y843655D01*
Y844038D01*
X660254Y844391D01*
X660179Y844767D01*
X659966Y845085D01*
X659820Y845438D01*
X659549Y845709D01*
X659337Y846027D01*
X659019Y846239D01*
X658748Y846510D01*
X658395Y846656D01*
X658077Y846869D01*
X657701Y846944D01*
X657348Y847090D01*
X657528Y848285D01*
X671830D01*
X672205Y848360D01*
X672588D01*
X672941Y848506D01*
X673317Y848581D01*
X673635Y848794D01*
X673988Y848940D01*
X674259Y849211D01*
X674577Y849423D01*
X674789Y849741D01*
X675060Y850012D01*
X675206Y850365D01*
X675419Y850683D01*
X675494Y851059D01*
X675640Y851412D01*
Y851795D01*
X675715Y852170D01*
X675651Y852489D01*
X675710Y852577D01*
X676840Y853096D01*
X699695Y830241D01*
Y828040D01*
X696595D01*
Y825575D01*
X682600D01*
Y828260D01*
X663600D01*
Y817260D01*
X682600D01*
Y817805D01*
X696595D01*
Y815340D01*
X705208D01*
X705694Y814167D01*
X704402Y812875D01*
X688330D01*
X686843Y812579D01*
X685583Y811737D01*
X677106Y803260D01*
X663600D01*
Y797754D01*
X655858Y790012D01*
X654685Y790498D01*
Y796290D01*
X646430D01*
Y788670D01*
X652857D01*
X653343Y787497D01*
X639351Y773505D01*
X601980D01*
X600493Y773209D01*
X599233Y772367D01*
X579641Y752775D01*
X578837Y752990D01*
X576862D01*
X574955Y752479D01*
X573245Y751491D01*
X571848Y750095D01*
X570861Y748385D01*
X570350Y746477D01*
Y744503D01*
X570861Y742595D01*
X571848Y740885D01*
X573245Y739489D01*
X574955Y738501D01*
X576862Y737990D01*
X578837D01*
X580745Y738501D01*
X582455Y739489D01*
X583851Y740885D01*
X584839Y742595D01*
X585350Y744503D01*
Y746477D01*
X585135Y747281D01*
X603589Y765735D01*
X640960D01*
X642447Y766031D01*
X643707Y766873D01*
X669094Y792260D01*
X682600D01*
Y797766D01*
X689939Y805105D01*
X694055D01*
Y800100D01*
X703580D01*
Y798830D01*
X704850D01*
Y789940D01*
X713105D01*
Y792381D01*
X720725D01*
Y787400D01*
X728980D01*
Y796290D01*
Y805180D01*
X720725D01*
Y802739D01*
X713105D01*
Y807720D01*
X711894D01*
X711408Y808893D01*
X717780Y815265D01*
X723265D01*
Y812800D01*
X737235D01*
Y825500D01*
X723265D01*
Y823035D01*
X716171D01*
X714684Y822739D01*
X713424Y821897D01*
X711738Y820211D01*
X710565Y820697D01*
Y828040D01*
X707465D01*
Y831850D01*
X707169Y833337D01*
X706327Y834597D01*
X693268Y847656D01*
X693264Y847664D01*
X693079Y848711D01*
X693429Y849291D01*
X693627Y849423D01*
X693839Y849741D01*
X694110Y850012D01*
X694256Y850365D01*
X694469Y850683D01*
X694544Y851059D01*
X694690Y851412D01*
Y851795D01*
X694765Y852170D01*
X694690Y852545D01*
Y852928D01*
X694544Y853281D01*
X694469Y853657D01*
X694256Y853975D01*
X694110Y854328D01*
X693839Y854599D01*
X693627Y854917D01*
X651998Y896545D01*
X652346Y897656D01*
X652467Y897815D01*
X696292D01*
X696472Y896620D01*
X696119Y896474D01*
X695743Y896399D01*
X695425Y896186D01*
X695072Y896040D01*
X694801Y895769D01*
X694483Y895557D01*
X694271Y895239D01*
X694000Y894968D01*
X693854Y894615D01*
X693641Y894297D01*
X693566Y893921D01*
X693420Y893568D01*
Y893185D01*
X693345Y892810D01*
X693420Y892435D01*
Y892052D01*
X693566Y891699D01*
X693641Y891323D01*
X693831Y891039D01*
Y889784D01*
X694127Y888297D01*
X694969Y887037D01*
X740203Y841803D01*
X741463Y840961D01*
X742950Y840665D01*
X751840D01*
Y836295D01*
X767080D01*
Y852805D01*
X757334D01*
X755857Y854282D01*
X754597Y855124D01*
X753110Y855420D01*
X752475D01*
X750988Y855124D01*
X749728Y854282D01*
X748886Y853022D01*
X748590Y851535D01*
X748886Y850048D01*
X749116Y849705D01*
X748437Y848435D01*
X744559D01*
X712687Y880306D01*
X712687Y880692D01*
X712988Y881802D01*
X713005Y881814D01*
X713358Y881960D01*
X713629Y882231D01*
X713947Y882443D01*
X738077Y906573D01*
X738919Y907833D01*
X739215Y909320D01*
Y968375D01*
X742950D01*
Y984885D01*
X727710D01*
Y968375D01*
X731445D01*
Y943751D01*
X731247Y943540D01*
X730175Y943007D01*
X730116Y943032D01*
X729692Y943315D01*
X729192Y943415D01*
X728720Y943610D01*
X728210D01*
X727710Y943709D01*
X625715D01*
X599292Y970133D01*
X599221Y970181D01*
X599589Y971395D01*
X599630Y971451D01*
X694690D01*
Y968375D01*
X704436D01*
X705913Y966898D01*
X707173Y966056D01*
X707444Y966002D01*
X715587Y957859D01*
X716848Y957017D01*
X718312Y956726D01*
X718603Y956531D01*
X718979Y956456D01*
X719332Y956310D01*
X719715D01*
X720090Y956235D01*
X720465Y956310D01*
X720848D01*
X721201Y956456D01*
X721577Y956531D01*
X721895Y956744D01*
X722248Y956890D01*
X722519Y957161D01*
X722837Y957373D01*
X723049Y957691D01*
X723320Y957962D01*
X723466Y958315D01*
X723679Y958633D01*
X723754Y959009D01*
X723900Y959362D01*
Y959745D01*
X723975Y960120D01*
X723900Y960495D01*
Y960878D01*
X723754Y961231D01*
X723679Y961607D01*
X723466Y961925D01*
X723320Y962278D01*
X723049Y962549D01*
X722837Y962867D01*
X722351Y963353D01*
X721091Y964195D01*
X720027Y964406D01*
X712042Y972392D01*
X710782Y973234D01*
X710511Y973288D01*
X709930Y973869D01*
Y977544D01*
X710007Y977560D01*
X711687Y978682D01*
X722235Y989230D01*
X778240D01*
X847843Y919628D01*
X847843Y919628D01*
X850172Y917298D01*
Y914424D01*
X849750Y912847D01*
Y910873D01*
X850261Y908965D01*
X851248Y907255D01*
X852070Y906433D01*
Y891887D01*
X851248Y891065D01*
X850261Y889355D01*
X849750Y887447D01*
Y886285D01*
X840888Y877422D01*
X839765Y875742D01*
X839370Y873760D01*
Y865505D01*
X838200D01*
Y851535D01*
X839370D01*
Y843915D01*
X838200D01*
Y829945D01*
X840256D01*
Y817930D01*
X840437Y817018D01*
Y814172D01*
X840564Y813864D01*
X840872Y813737D01*
X842303D01*
X842582Y813457D01*
X844263Y812335D01*
X846245Y811941D01*
X846320D01*
X848302Y812335D01*
X849983Y813457D01*
X850169Y813737D01*
X851768D01*
X852076Y813864D01*
X852203Y814172D01*
Y820068D01*
X852076Y820376D01*
X851768Y820503D01*
X850614D01*
Y829945D01*
X850900D01*
Y843915D01*
X849730D01*
Y851535D01*
X850900D01*
Y865505D01*
X849730D01*
Y871615D01*
X857075Y878960D01*
X858237D01*
X860145Y879471D01*
X861855Y880459D01*
X863251Y881855D01*
X864239Y883565D01*
X864750Y885473D01*
Y887447D01*
X864239Y889355D01*
X863251Y891065D01*
X862430Y891887D01*
Y906433D01*
X863251Y907255D01*
X864239Y908965D01*
X864750Y910873D01*
Y912847D01*
X864239Y914755D01*
X863251Y916465D01*
X861855Y917861D01*
X860531Y918626D01*
Y919444D01*
X860137Y921426D01*
X859014Y923106D01*
X855168Y926953D01*
X855168Y926953D01*
X784048Y998073D01*
X782368Y999195D01*
X780386Y999589D01*
X720090D01*
X718108Y999195D01*
X716428Y998073D01*
X716428Y998072D01*
X705505Y987150D01*
X705408Y987130D01*
X703727Y986008D01*
X702605Y984885D01*
X694690D01*
Y981809D01*
X562215D01*
X502800Y1041225D01*
Y1048900D01*
D02*
G37*
G36*
X643890Y806450D02*
X635635D01*
Y802739D01*
X606425D01*
Y806450D01*
X598170D01*
Y797560D01*
Y788670D01*
X606425D01*
Y792381D01*
X635635D01*
Y788670D01*
X643890D01*
Y797560D01*
Y806450D01*
D02*
G37*
G36*
X915670Y803910D02*
X907415D01*
Y800200D01*
X903605D01*
Y803910D01*
X895350D01*
Y795020D01*
Y786130D01*
X903605D01*
Y789840D01*
X907415D01*
Y786130D01*
X911125D01*
Y756212D01*
X910084Y755339D01*
X909372Y755530D01*
X909320D01*
Y746760D01*
X918090D01*
Y746812D01*
X917796Y747911D01*
X919967Y750082D01*
X921090Y751763D01*
X921485Y753745D01*
Y786130D01*
X926465D01*
Y793750D01*
X916940D01*
Y795020D01*
X915670D01*
Y803910D01*
D02*
G37*
G36*
X654685Y806450D02*
X646430D01*
Y798830D01*
X654685D01*
Y806450D01*
D02*
G37*
G36*
X739775Y805180D02*
X731520D01*
Y797560D01*
X739775D01*
Y805180D01*
D02*
G37*
G36*
X983020Y854580D02*
X970360D01*
X957700D01*
Y853450D01*
X958176Y851054D01*
X959533Y849023D01*
X959605Y848975D01*
Y844375D01*
X919140Y803910D01*
X918210D01*
Y796290D01*
X926465D01*
Y796585D01*
X968447Y838568D01*
X969570Y840248D01*
X969965Y842230D01*
Y847190D01*
X976760D01*
X979156Y847666D01*
X981187Y849023D01*
X982544Y851054D01*
X983020Y853450D01*
Y854580D01*
D02*
G37*
G36*
X702310Y797560D02*
X694055D01*
Y789940D01*
X702310D01*
Y797560D01*
D02*
G37*
G36*
X473590Y834390D02*
X464820D01*
Y825620D01*
X464872D01*
X465971Y825914D01*
X497988Y793897D01*
X499668Y792775D01*
X501650Y792381D01*
X587375D01*
Y788670D01*
X595630D01*
Y797560D01*
Y806450D01*
X587375D01*
Y802739D01*
X503795D01*
X473296Y833239D01*
X473590Y834338D01*
Y834390D01*
D02*
G37*
G36*
X892810Y793750D02*
X884555D01*
Y786130D01*
X892810D01*
Y793750D01*
D02*
G37*
G36*
X739775Y795020D02*
X731520D01*
Y787400D01*
X737615D01*
X738149Y786401D01*
X738149Y786130D01*
X737770Y784225D01*
Y783590D01*
X738165Y781608D01*
X739287Y779928D01*
X740968Y778805D01*
X742950Y778410D01*
X744932Y778805D01*
X746612Y779928D01*
X747735Y781608D01*
X748130Y783590D01*
Y784225D01*
X747735Y786207D01*
X746612Y787887D01*
X744932Y789010D01*
X742950Y789405D01*
X741045Y789026D01*
X740775Y789026D01*
X739775Y789560D01*
Y795020D01*
D02*
G37*
G36*
X878840Y785495D02*
X871220D01*
Y777240D01*
X878840D01*
Y785495D01*
D02*
G37*
G36*
X868680D02*
X861060D01*
Y777240D01*
X868680D01*
Y785495D01*
D02*
G37*
G36*
X846320Y802205D02*
X844833Y801909D01*
X844525Y801703D01*
X840872D01*
X840564Y801576D01*
X840437Y801268D01*
Y795372D01*
X840564Y795064D01*
X840872Y794937D01*
X842435D01*
Y782955D01*
X840740D01*
Y768985D01*
X853440D01*
Y782955D01*
X850205D01*
Y794937D01*
X851768D01*
X852076Y795064D01*
X852203Y795372D01*
Y801268D01*
X852076Y801576D01*
X851768Y801703D01*
X848115D01*
X847807Y801909D01*
X846320Y802205D01*
D02*
G37*
G36*
X878840Y774700D02*
X871220D01*
Y766445D01*
X878840D01*
Y774700D01*
D02*
G37*
G36*
X868680D02*
X861060D01*
Y766445D01*
X868680D01*
Y774700D01*
D02*
G37*
G36*
X934772Y755530D02*
X934720D01*
Y746760D01*
X943490D01*
Y746812D01*
X942806Y749365D01*
X941484Y751655D01*
X939615Y753524D01*
X937325Y754846D01*
X934772Y755530D01*
D02*
G37*
G36*
X932180D02*
X932128D01*
X929575Y754846D01*
X927285Y753524D01*
X925416Y751655D01*
X924094Y749365D01*
X923410Y746812D01*
Y746760D01*
X932180D01*
Y755530D01*
D02*
G37*
G36*
X906780D02*
X906728D01*
X904175Y754846D01*
X901885Y753524D01*
X900016Y751655D01*
X898694Y749365D01*
X898010Y746812D01*
Y746760D01*
X906780D01*
Y755530D01*
D02*
G37*
G36*
X985237Y752990D02*
X983263D01*
X981355Y752479D01*
X979645Y751491D01*
X978249Y750095D01*
X977261Y748385D01*
X976750Y746477D01*
Y744503D01*
X977261Y742595D01*
X978249Y740885D01*
X979645Y739489D01*
X981355Y738501D01*
X983263Y737990D01*
X985237D01*
X987145Y738501D01*
X988855Y739489D01*
X990251Y740885D01*
X991239Y742595D01*
X991750Y744503D01*
Y746477D01*
X991239Y748385D01*
X990251Y750095D01*
X988855Y751491D01*
X987145Y752479D01*
X985237Y752990D01*
D02*
G37*
G36*
X959837D02*
X957863D01*
X955955Y752479D01*
X954245Y751491D01*
X952849Y750095D01*
X951861Y748385D01*
X951350Y746477D01*
Y744503D01*
X951861Y742595D01*
X952849Y740885D01*
X954245Y739489D01*
X955955Y738501D01*
X957863Y737990D01*
X959837D01*
X961745Y738501D01*
X963455Y739489D01*
X964852Y740885D01*
X965839Y742595D01*
X966350Y744503D01*
Y746477D01*
X965839Y748385D01*
X964852Y750095D01*
X963455Y751491D01*
X961745Y752479D01*
X959837Y752990D01*
D02*
G37*
G36*
X883637D02*
X881663D01*
X879755Y752479D01*
X878045Y751491D01*
X876648Y750095D01*
X875661Y748385D01*
X875150Y746477D01*
Y744503D01*
X875661Y742595D01*
X876648Y740885D01*
X878045Y739489D01*
X879755Y738501D01*
X881663Y737990D01*
X883637D01*
X885545Y738501D01*
X887255Y739489D01*
X888651Y740885D01*
X889639Y742595D01*
X890150Y744503D01*
Y746477D01*
X889639Y748385D01*
X888651Y750095D01*
X887255Y751491D01*
X885545Y752479D01*
X883637Y752990D01*
D02*
G37*
G36*
X858237D02*
X856263D01*
X854355Y752479D01*
X852645Y751491D01*
X851248Y750095D01*
X850261Y748385D01*
X849750Y746477D01*
Y744503D01*
X850261Y742595D01*
X851248Y740885D01*
X852645Y739489D01*
X854355Y738501D01*
X856263Y737990D01*
X858237D01*
X860145Y738501D01*
X861855Y739489D01*
X863251Y740885D01*
X864239Y742595D01*
X864750Y744503D01*
Y746477D01*
X864239Y748385D01*
X863251Y750095D01*
X861855Y751491D01*
X860145Y752479D01*
X858237Y752990D01*
D02*
G37*
G36*
X832837D02*
X830863D01*
X828955Y752479D01*
X827245Y751491D01*
X825848Y750095D01*
X824861Y748385D01*
X824350Y746477D01*
Y744503D01*
X824861Y742595D01*
X825848Y740885D01*
X827245Y739489D01*
X828955Y738501D01*
X830863Y737990D01*
X832837D01*
X834745Y738501D01*
X836455Y739489D01*
X837851Y740885D01*
X838839Y742595D01*
X839350Y744503D01*
Y746477D01*
X838839Y748385D01*
X837851Y750095D01*
X836455Y751491D01*
X834745Y752479D01*
X832837Y752990D01*
D02*
G37*
G36*
X807437D02*
X805462D01*
X803555Y752479D01*
X801845Y751491D01*
X800448Y750095D01*
X799461Y748385D01*
X798950Y746477D01*
Y744503D01*
X799461Y742595D01*
X800448Y740885D01*
X801845Y739489D01*
X803555Y738501D01*
X805462Y737990D01*
X807437D01*
X809345Y738501D01*
X811055Y739489D01*
X812451Y740885D01*
X813439Y742595D01*
X813950Y744503D01*
Y746477D01*
X813439Y748385D01*
X812451Y750095D01*
X811055Y751491D01*
X809345Y752479D01*
X807437Y752990D01*
D02*
G37*
G36*
X782037D02*
X780063D01*
X778155Y752479D01*
X776445Y751491D01*
X775049Y750095D01*
X774061Y748385D01*
X773550Y746477D01*
Y744503D01*
X774061Y742595D01*
X775049Y740885D01*
X776445Y739489D01*
X778155Y738501D01*
X780063Y737990D01*
X782037D01*
X783945Y738501D01*
X785655Y739489D01*
X787051Y740885D01*
X788039Y742595D01*
X788550Y744503D01*
Y746477D01*
X788039Y748385D01*
X787051Y750095D01*
X785655Y751491D01*
X783945Y752479D01*
X782037Y752990D01*
D02*
G37*
G36*
X756637D02*
X754663D01*
X752755Y752479D01*
X751045Y751491D01*
X749649Y750095D01*
X748661Y748385D01*
X748150Y746477D01*
Y744503D01*
X748661Y742595D01*
X749649Y740885D01*
X751045Y739489D01*
X752755Y738501D01*
X754663Y737990D01*
X756637D01*
X758545Y738501D01*
X760255Y739489D01*
X761652Y740885D01*
X762639Y742595D01*
X763150Y744503D01*
Y746477D01*
X762639Y748385D01*
X761652Y750095D01*
X760255Y751491D01*
X758545Y752479D01*
X756637Y752990D01*
D02*
G37*
G36*
X731237D02*
X729263D01*
X727355Y752479D01*
X725645Y751491D01*
X724249Y750095D01*
X723261Y748385D01*
X722750Y746477D01*
Y744503D01*
X723261Y742595D01*
X724249Y740885D01*
X725645Y739489D01*
X727355Y738501D01*
X729263Y737990D01*
X731237D01*
X733145Y738501D01*
X734855Y739489D01*
X736252Y740885D01*
X737239Y742595D01*
X737750Y744503D01*
Y746477D01*
X737239Y748385D01*
X736252Y750095D01*
X734855Y751491D01*
X733145Y752479D01*
X731237Y752990D01*
D02*
G37*
G36*
X705837D02*
X703863D01*
X701955Y752479D01*
X700245Y751491D01*
X698848Y750095D01*
X697861Y748385D01*
X697350Y746477D01*
Y744503D01*
X697861Y742595D01*
X698848Y740885D01*
X700245Y739489D01*
X701955Y738501D01*
X703863Y737990D01*
X705837D01*
X707745Y738501D01*
X709455Y739489D01*
X710852Y740885D01*
X711839Y742595D01*
X712350Y744503D01*
Y746477D01*
X711839Y748385D01*
X710852Y750095D01*
X709455Y751491D01*
X707745Y752479D01*
X705837Y752990D01*
D02*
G37*
G36*
X680437D02*
X678463D01*
X676555Y752479D01*
X674845Y751491D01*
X673448Y750095D01*
X672461Y748385D01*
X671950Y746477D01*
Y744503D01*
X672461Y742595D01*
X673448Y740885D01*
X674845Y739489D01*
X676555Y738501D01*
X678463Y737990D01*
X680437D01*
X682345Y738501D01*
X684055Y739489D01*
X685452Y740885D01*
X686439Y742595D01*
X686950Y744503D01*
Y746477D01*
X686439Y748385D01*
X685452Y750095D01*
X684055Y751491D01*
X682345Y752479D01*
X680437Y752990D01*
D02*
G37*
G36*
X655037D02*
X653063D01*
X651155Y752479D01*
X649445Y751491D01*
X648048Y750095D01*
X647061Y748385D01*
X646550Y746477D01*
Y744503D01*
X647061Y742595D01*
X648048Y740885D01*
X649445Y739489D01*
X651155Y738501D01*
X653063Y737990D01*
X655037D01*
X656945Y738501D01*
X658655Y739489D01*
X660051Y740885D01*
X661039Y742595D01*
X661550Y744503D01*
Y746477D01*
X661039Y748385D01*
X660051Y750095D01*
X658655Y751491D01*
X656945Y752479D01*
X655037Y752990D01*
D02*
G37*
G36*
X629637D02*
X627663D01*
X625755Y752479D01*
X624045Y751491D01*
X622649Y750095D01*
X621661Y748385D01*
X621150Y746477D01*
Y744503D01*
X621661Y742595D01*
X622649Y740885D01*
X624045Y739489D01*
X625755Y738501D01*
X627663Y737990D01*
X629637D01*
X631545Y738501D01*
X633255Y739489D01*
X634651Y740885D01*
X635639Y742595D01*
X636150Y744503D01*
Y746477D01*
X635639Y748385D01*
X634651Y750095D01*
X633255Y751491D01*
X631545Y752479D01*
X629637Y752990D01*
D02*
G37*
G36*
X604237D02*
X602263D01*
X600355Y752479D01*
X598645Y751491D01*
X597248Y750095D01*
X596261Y748385D01*
X595750Y746477D01*
Y744503D01*
X596261Y742595D01*
X597248Y740885D01*
X598645Y739489D01*
X600355Y738501D01*
X602263Y737990D01*
X604237D01*
X606145Y738501D01*
X607855Y739489D01*
X609252Y740885D01*
X610239Y742595D01*
X610750Y744503D01*
Y746477D01*
X610239Y748385D01*
X609252Y750095D01*
X607855Y751491D01*
X606145Y752479D01*
X604237Y752990D01*
D02*
G37*
G36*
X553437D02*
X551463D01*
X549555Y752479D01*
X547845Y751491D01*
X546449Y750095D01*
X545461Y748385D01*
X544950Y746477D01*
Y744503D01*
X545461Y742595D01*
X546449Y740885D01*
X547845Y739489D01*
X549555Y738501D01*
X551463Y737990D01*
X553437D01*
X555345Y738501D01*
X557055Y739489D01*
X558451Y740885D01*
X559439Y742595D01*
X559950Y744503D01*
Y746477D01*
X559439Y748385D01*
X558451Y750095D01*
X557055Y751491D01*
X555345Y752479D01*
X553437Y752990D01*
D02*
G37*
G36*
X527050Y778585D02*
X526675Y778510D01*
X526292D01*
X525939Y778364D01*
X525563Y778289D01*
X525245Y778076D01*
X524892Y777930D01*
X524621Y777659D01*
X524303Y777447D01*
X524091Y777129D01*
X523820Y776858D01*
X523674Y776505D01*
X523461Y776187D01*
X523386Y775811D01*
X523240Y775458D01*
Y775075D01*
X523165Y774700D01*
Y751907D01*
X522445Y751491D01*
X521049Y750095D01*
X520061Y748385D01*
X519550Y746477D01*
Y744503D01*
X520061Y742595D01*
X521049Y740885D01*
X522445Y739489D01*
X524155Y738501D01*
X526063Y737990D01*
X528037D01*
X529945Y738501D01*
X531655Y739489D01*
X533051Y740885D01*
X534039Y742595D01*
X534550Y744503D01*
Y746477D01*
X534039Y748385D01*
X533051Y750095D01*
X531655Y751491D01*
X530935Y751907D01*
Y774700D01*
X530860Y775075D01*
Y775458D01*
X530714Y775811D01*
X530639Y776187D01*
X530426Y776505D01*
X530280Y776858D01*
X530009Y777129D01*
X529797Y777447D01*
X529479Y777659D01*
X529208Y777930D01*
X528855Y778076D01*
X528537Y778289D01*
X528161Y778364D01*
X527808Y778510D01*
X527425D01*
X527050Y778585D01*
D02*
G37*
G36*
X509150Y752990D02*
X494150D01*
Y737990D01*
X509150D01*
Y752990D01*
D02*
G37*
G36*
X943490Y744220D02*
X934720D01*
Y735450D01*
X934772D01*
X937325Y736134D01*
X939615Y737456D01*
X941484Y739325D01*
X942806Y741615D01*
X943490Y744168D01*
Y744220D01*
D02*
G37*
G36*
X932180D02*
X923410D01*
Y744168D01*
X924094Y741615D01*
X925416Y739325D01*
X927285Y737456D01*
X929575Y736134D01*
X932128Y735450D01*
X932180D01*
Y744220D01*
D02*
G37*
G36*
X918090D02*
X909320D01*
Y735450D01*
X909372D01*
X911925Y736134D01*
X914215Y737456D01*
X916084Y739325D01*
X917406Y741615D01*
X918090Y744168D01*
Y744220D01*
D02*
G37*
G36*
X906780D02*
X898010D01*
Y744168D01*
X898694Y741615D01*
X900016Y739325D01*
X901885Y737456D01*
X904175Y736134D01*
X906728Y735450D01*
X906780D01*
Y744220D01*
D02*
G37*
%LPD*%
G36*
X731247Y933520D02*
X731445Y933309D01*
Y910929D01*
X720717Y900201D01*
X719139Y900419D01*
X718438Y901120D01*
X717038Y901700D01*
X715522D01*
X714122Y901120D01*
X713050Y900048D01*
X712470Y898648D01*
Y897132D01*
X713050Y895732D01*
X714122Y894660D01*
X714297Y893781D01*
X708453Y887937D01*
X708241Y887619D01*
X707970Y887348D01*
X707824Y886995D01*
X707812Y886978D01*
X706702Y886677D01*
X706316Y886677D01*
X701601Y891393D01*
Y892324D01*
X701305Y893811D01*
X700463Y895071D01*
X699977Y895557D01*
X699659Y895769D01*
X699388Y896040D01*
X699035Y896186D01*
X698717Y896399D01*
X698341Y896474D01*
X697988Y896620D01*
X698168Y897815D01*
X706120D01*
X707607Y898111D01*
X708867Y898953D01*
X726647Y916733D01*
X726860Y917051D01*
X727130Y917322D01*
X727276Y917675D01*
X727489Y917993D01*
X727564Y918369D01*
X727710Y918722D01*
Y919105D01*
X727785Y919480D01*
X727710Y919855D01*
Y920238D01*
X727564Y920591D01*
X727489Y920967D01*
X727276Y921285D01*
X727130Y921638D01*
X726859Y921909D01*
X726647Y922227D01*
X726329Y922439D01*
X726058Y922710D01*
X725705Y922856D01*
X725387Y923069D01*
X725011Y923144D01*
X724658Y923290D01*
X724275D01*
X723900Y923365D01*
X723525Y923290D01*
X723142D01*
X722789Y923144D01*
X722413Y923069D01*
X722095Y922856D01*
X721742Y922710D01*
X721471Y922439D01*
X721153Y922227D01*
X709734Y910807D01*
X709348Y910807D01*
X708307Y911089D01*
X708086Y911463D01*
X708080Y911478D01*
X708074Y911485D01*
X707644Y912214D01*
X707999Y913326D01*
X728102Y933428D01*
X728210Y933450D01*
X728720D01*
X729192Y933645D01*
X729692Y933745D01*
X730116Y934028D01*
X730175Y934053D01*
X731247Y933520D01*
D02*
G37*
G36*
X585052Y900452D02*
X577485Y892885D01*
X516498D01*
X516012Y894058D01*
X523579Y901625D01*
X584566D01*
X585052Y900452D01*
D02*
G37*
G36*
X645692Y897527D02*
X646035Y896545D01*
X646011Y896509D01*
X645740Y896238D01*
X645594Y895885D01*
X645381Y895567D01*
X645306Y895191D01*
X645160Y894838D01*
Y894455D01*
X645085Y894080D01*
X645160Y893705D01*
Y893322D01*
X645306Y892969D01*
X645381Y892593D01*
X645594Y892275D01*
X645740Y891922D01*
X646011Y891651D01*
X646223Y891333D01*
X663092Y874464D01*
X663096Y874456D01*
X663281Y873409D01*
X662931Y872829D01*
X662733Y872697D01*
X662521Y872379D01*
X662250Y872108D01*
X662104Y871755D01*
X661891Y871437D01*
X661816Y871061D01*
X661670Y870708D01*
Y870325D01*
X661595Y869950D01*
X661670Y869575D01*
Y869192D01*
X661816Y868839D01*
X661891Y868463D01*
X662104Y868145D01*
X662250Y867792D01*
X662521Y867521D01*
X662733Y867203D01*
X672756Y857180D01*
X672237Y856050D01*
X672149Y855991D01*
X671830Y856055D01*
X651214D01*
X634365Y872904D01*
Y882650D01*
X629995D01*
Y894080D01*
X629920Y894455D01*
Y894838D01*
X629774Y895191D01*
X629699Y895567D01*
X629486Y895885D01*
X629340Y896238D01*
X629069Y896509D01*
X629045Y896545D01*
X629389Y897527D01*
X629608Y897815D01*
X645472D01*
X645692Y897527D01*
D02*
G37*
D16*
X678180Y922020D02*
X679450D01*
X690880Y910590D01*
X755650Y883920D02*
Y895350D01*
X846320Y776740D02*
Y798320D01*
Y776740D02*
X847090Y775970D01*
X527050Y745490D02*
Y774700D01*
X648970Y894080D02*
X690880Y852170D01*
X591794Y901700D02*
X706120D01*
X521970Y905510D02*
X700822D01*
X704632Y909320D01*
X706120Y901700D02*
X723900Y919480D01*
X704632Y909320D02*
X704850D01*
X502920Y886460D02*
X521970Y905510D01*
X579094Y889000D02*
X591794Y901700D01*
X640960Y769620D02*
X669100Y797760D01*
X601980Y769620D02*
X640960D01*
X577850Y745490D02*
X601980Y769620D01*
X669100Y797760D02*
X673100D01*
X735330Y909320D02*
Y976630D01*
X711200Y885190D02*
X735330Y909320D01*
X727710Y877570D02*
X745490Y895350D01*
X755650D01*
X699770Y910590D02*
X727710Y938530D01*
X690880Y910590D02*
X699770D01*
X894080Y817880D02*
X916940D01*
X893320Y817120D02*
X894080Y817880D01*
X870720Y817120D02*
X893320D01*
X858520Y815340D02*
X860300Y817120D01*
X870720D01*
X858520Y801370D02*
Y815340D01*
X861060Y798830D02*
X870210D01*
X870720Y798320D01*
X858520Y801370D02*
X861060Y798830D01*
X893445Y795020D02*
X894080D01*
X870720Y807720D02*
X880745D01*
X893445Y795020D01*
X916940Y817880D02*
Y853440D01*
X626110Y842010D02*
X626110Y842010D01*
X610870Y842010D02*
X626110D01*
X626110Y875030D02*
Y894080D01*
X665480Y869950D02*
X703580Y831850D01*
Y821690D02*
Y831850D01*
X677100Y797760D02*
X688330Y808990D01*
X673100Y797760D02*
X677100D01*
X706011Y808990D02*
X716171Y819150D01*
X730250D01*
X688330Y808990D02*
X706011D01*
X674170Y821690D02*
X703580D01*
X673100Y822760D02*
X674170Y821690D01*
X645160Y831850D02*
X656590Y843280D01*
X645160Y820420D02*
Y831850D01*
X649605Y852170D02*
X671830D01*
X626745Y875030D02*
X649605Y852170D01*
X626110Y875030D02*
X626745D01*
X625475D02*
X626110D01*
X860425Y949325D02*
X876300Y933450D01*
X882650D01*
X854075Y963930D02*
X860425Y957580D01*
Y949325D02*
Y957580D01*
X853440Y963930D02*
X854075D01*
X928370Y881380D02*
Y911569D01*
X913130Y926809D02*
X928370Y911569D01*
X881380Y944880D02*
Y963930D01*
X913130Y926809D02*
Y962660D01*
X881380Y944880D02*
X916940Y909320D01*
X463550Y886460D02*
X502920D01*
X463550Y861060D02*
X486410D01*
X514350Y889000D01*
X579094D01*
X697230Y892810D02*
X697716Y892324D01*
Y889784D02*
X742950Y844550D01*
X759460D01*
X697716Y889784D02*
Y892324D01*
X759460Y844550D02*
Y845185D01*
X753110Y851535D02*
X759460Y845185D01*
X752475Y851535D02*
X753110D01*
X750570Y905510D02*
X754380Y909320D01*
X708660Y969645D02*
X709295D01*
X718334Y960606D01*
X702310Y975995D02*
X708660Y969645D01*
X718334Y960606D02*
X719604D01*
X702310Y975995D02*
Y976630D01*
X719604Y960606D02*
X720090Y960120D01*
D18*
X881380Y996950D02*
D03*
Y963930D02*
D03*
X853440Y996950D02*
D03*
Y963930D02*
D03*
X913130Y995680D02*
D03*
Y962660D02*
D03*
X626110Y842010D02*
D03*
Y875030D02*
D03*
D21*
X916940Y817880D02*
D03*
Y795020D02*
D03*
X894080Y817880D02*
D03*
Y795020D02*
D03*
X730250Y819150D02*
D03*
Y796290D02*
D03*
X645160Y820420D02*
D03*
Y797560D02*
D03*
X596900Y820420D02*
D03*
Y797560D02*
D03*
X703580Y821690D02*
D03*
Y798830D02*
D03*
D22*
X704850Y1010920D02*
D03*
X727710D02*
D03*
X844550Y858520D02*
D03*
X867410D02*
D03*
X844550Y836930D02*
D03*
X867410D02*
D03*
X847090Y775970D02*
D03*
X869950D02*
D03*
D41*
X916305Y753745D02*
Y795020D01*
X580390Y991870D02*
X599440Y1010920D01*
X704850D01*
X742950Y783590D02*
Y784225D01*
X730250Y796290D02*
X730885D01*
X844550Y836930D02*
Y858520D01*
X845435Y817930D02*
X846245Y817120D01*
X845435Y817930D02*
Y836045D01*
X844550Y836930D02*
X845435Y836045D01*
X846245Y817120D02*
X846320D01*
X623570Y938530D02*
X727710D01*
X595630Y966470D02*
X623570Y938530D01*
X727710Y1010920D02*
X731520Y1007110D01*
X740410D01*
X889635Y1018540D02*
X912495Y995680D01*
X800100Y1041400D02*
X822960Y1018540D01*
X889635D01*
X800100Y1041400D02*
X800100D01*
X912495Y995680D02*
X913130D01*
X774700Y1028700D02*
Y1041400D01*
Y1028700D02*
X806450Y996950D01*
X853440D01*
X853440Y996950D01*
X881380D01*
X857250Y886460D02*
Y911860D01*
X797560Y849630D02*
Y852170D01*
X831850Y886460D01*
X792480Y844550D02*
X797560Y849630D01*
X789940Y911860D02*
X831850D01*
X787400Y909320D02*
X789940Y911860D01*
X917575Y795020D02*
X964785Y842230D01*
Y852471D01*
X916940Y795020D02*
X917575D01*
X964785Y852471D02*
X968164Y855850D01*
X970360D01*
X867410Y836930D02*
Y858520D01*
X882650Y886460D02*
Y911860D01*
X867410Y858520D02*
Y859155D01*
X880752Y872497D01*
Y884562D01*
X882650Y886460D01*
X908050Y745490D02*
X916305Y753745D01*
X894080Y795020D02*
X916305D01*
X704850Y797560D02*
X728980D01*
X703580Y798830D02*
X704850Y797560D01*
X728980D02*
X730250Y796290D01*
X596900Y820420D02*
Y846455D01*
X625475Y875030D01*
X631825Y833120D02*
Y836930D01*
X626745Y842010D02*
X631825Y836930D01*
X626110Y842010D02*
X626745D01*
X644525Y820420D02*
X645160D01*
X631825Y833120D02*
X644525Y820420D01*
X596900Y797560D02*
X645160D01*
X501650D02*
X596900D01*
X463550Y835660D02*
X501650Y797560D01*
X720090Y994410D02*
X780386D01*
X851506Y923290D02*
X851506D01*
X780386Y994410D02*
X851506Y923290D01*
X851506D02*
X855352Y919444D01*
Y913758D02*
X857250Y911860D01*
X855352Y913758D02*
Y919444D01*
X707390Y982345D02*
X708025D01*
X702310Y976630D02*
Y977265D01*
X707390Y982345D01*
X708025D02*
X720090Y994410D01*
X495300Y1041400D02*
X560070Y976630D01*
X702310D01*
X844550Y873760D02*
X857250Y886460D01*
X844550Y858520D02*
Y873760D01*
D43*
X586740Y881380D02*
D03*
Y932180D02*
D03*
D44*
X882650Y911860D02*
D03*
Y886460D02*
D03*
X857250Y911860D02*
D03*
Y886460D02*
D03*
X831850Y911860D02*
D03*
X520700Y1041400D02*
D03*
X546100D02*
D03*
X571500D02*
D03*
X596900D02*
D03*
X622300D02*
D03*
X647700D02*
D03*
X673100D02*
D03*
X698500D02*
D03*
X723900D02*
D03*
X749300D02*
D03*
X774700D02*
D03*
X800100D02*
D03*
X825500D02*
D03*
X850900D02*
D03*
X876300D02*
D03*
X901700D02*
D03*
X927100D02*
D03*
X952500D02*
D03*
X977900D02*
D03*
X984250Y745490D02*
D03*
X958850D02*
D03*
X933450D02*
D03*
X908050D02*
D03*
X882650D02*
D03*
X857250D02*
D03*
X831850D02*
D03*
X806450D02*
D03*
X781050D02*
D03*
X755650D02*
D03*
X730250D02*
D03*
X704850D02*
D03*
X679450D02*
D03*
X654050D02*
D03*
X628650D02*
D03*
X603250D02*
D03*
X577850D02*
D03*
X552450D02*
D03*
X527050D02*
D03*
X463550Y886460D02*
D03*
Y861060D02*
D03*
Y835660D02*
D03*
D45*
X831850Y886460D02*
D03*
X495300Y1041400D02*
D03*
X501650Y745490D02*
D03*
D46*
X970360Y855850D02*
D03*
Y921850D02*
D03*
D47*
X463550Y911860D02*
D03*
D48*
X580390Y991870D02*
D03*
X527050Y774700D02*
D03*
X648970Y894080D02*
D03*
X690880Y852170D02*
D03*
X595630Y966470D02*
D03*
X740410Y1007110D02*
D03*
X735330Y976630D02*
D03*
X755650Y895350D02*
D03*
X727710Y877570D02*
D03*
Y938530D02*
D03*
X690880Y910590D02*
D03*
X916940Y853440D02*
D03*
X610870Y842010D02*
D03*
X626110Y894080D02*
D03*
X665480Y869950D02*
D03*
X656590Y843280D02*
D03*
X671830Y852170D02*
D03*
X882650Y933450D02*
D03*
X928370Y881380D02*
D03*
X916940Y909320D02*
D03*
X697230Y892810D02*
D03*
X750570Y905510D02*
D03*
X720090Y960120D02*
D03*
X711200Y885190D02*
D03*
X716280Y897890D02*
D03*
X704850Y909320D02*
D03*
X723900Y919480D02*
D03*
D49*
X735330Y976630D02*
D03*
X702310D02*
D03*
X792480Y844550D02*
D03*
X759460D02*
D03*
X754380Y909320D02*
D03*
X787400D02*
D03*
D50*
X870720Y817120D02*
D03*
Y807720D02*
D03*
Y798320D02*
D03*
X846320D02*
D03*
Y817120D02*
D03*
D51*
X673100Y797760D02*
D03*
Y822760D02*
D03*
M02*
