G04*
G04 #@! TF.GenerationSoftware,Altium Limited,Altium Designer,22.6.1 (34)*
G04*
G04 Layer_Color=8421504*
%FSLAX44Y44*%
%MOMM*%
G71*
G04*
G04 #@! TF.SameCoordinates,A72CB605-F9DB-4195-8002-294397CB98EC*
G04*
G04*
G04 #@! TF.FilePolarity,Positive*
G04*
G01*
G75*
%ADD17R,1.0000X0.7000*%
%ADD18R,1.6510X1.5240*%
G04:AMPARAMS|DCode=19|XSize=0.28mm|YSize=1.56mm|CornerRadius=0.07mm|HoleSize=0mm|Usage=FLASHONLY|Rotation=45.000|XOffset=0mm|YOffset=0mm|HoleType=Round|Shape=RoundedRectangle|*
%AMROUNDEDRECTD19*
21,1,0.2800,1.4200,0,0,45.0*
21,1,0.1400,1.5600,0,0,45.0*
1,1,0.1400,0.5515,-0.4526*
1,1,0.1400,0.4526,-0.5515*
1,1,0.1400,-0.5515,0.4526*
1,1,0.1400,-0.4526,0.5515*
%
%ADD19ROUNDEDRECTD19*%
G04:AMPARAMS|DCode=20|XSize=0.28mm|YSize=1.56mm|CornerRadius=0.07mm|HoleSize=0mm|Usage=FLASHONLY|Rotation=135.000|XOffset=0mm|YOffset=0mm|HoleType=Round|Shape=RoundedRectangle|*
%AMROUNDEDRECTD20*
21,1,0.2800,1.4200,0,0,135.0*
21,1,0.1400,1.5600,0,0,135.0*
1,1,0.1400,0.4526,0.5515*
1,1,0.1400,0.5515,0.4526*
1,1,0.1400,-0.4526,-0.5515*
1,1,0.1400,-0.5515,-0.4526*
%
%ADD20ROUNDEDRECTD20*%
%ADD21R,1.3970X1.2700*%
%ADD22R,1.2700X1.3970*%
%ADD23R,1.3500X0.4000*%
%ADD24R,1.4000X1.6000*%
D17*
X690090Y1012910D02*
D03*
X750090D02*
D03*
X690090Y975910D02*
D03*
X750090D02*
D03*
D18*
X509524Y960120D02*
D03*
Y993140D02*
D03*
X526796Y824230D02*
D03*
Y791210D02*
D03*
D19*
X674898Y913082D02*
D03*
X678433Y916617D02*
D03*
X681969Y920153D02*
D03*
X685504Y923688D02*
D03*
X689040Y927224D02*
D03*
X692575Y930759D02*
D03*
X696111Y934295D02*
D03*
X699646Y937830D02*
D03*
X703182Y941366D02*
D03*
X706717Y944901D02*
D03*
X710253Y948437D02*
D03*
X713788Y951973D02*
D03*
X772903Y892858D02*
D03*
X769367Y889323D02*
D03*
X765831Y885787D02*
D03*
X762296Y882252D02*
D03*
X758760Y878716D02*
D03*
X755225Y875181D02*
D03*
X751689Y871645D02*
D03*
X748154Y868110D02*
D03*
X744618Y864574D02*
D03*
X741083Y861039D02*
D03*
X737547Y857503D02*
D03*
X734012Y853968D02*
D03*
D20*
Y951973D02*
D03*
X737547Y948437D02*
D03*
X741083Y944901D02*
D03*
X744618Y941366D02*
D03*
X748154Y937830D02*
D03*
X751689Y934295D02*
D03*
X755225Y930759D02*
D03*
X758760Y927224D02*
D03*
X762296Y923688D02*
D03*
X765831Y920153D02*
D03*
X769367Y916617D02*
D03*
X772903Y913082D02*
D03*
X713788Y853968D02*
D03*
X710253Y857503D02*
D03*
X706717Y861039D02*
D03*
X703182Y864574D02*
D03*
X699646Y868110D02*
D03*
X696111Y871645D02*
D03*
X692575Y875181D02*
D03*
X689040Y878716D02*
D03*
X685504Y882252D02*
D03*
X681969Y885787D02*
D03*
X678433Y889323D02*
D03*
X674898Y892858D02*
D03*
D21*
X542290Y942340D02*
D03*
Y965200D02*
D03*
X525780Y868680D02*
D03*
Y845820D02*
D03*
D22*
X513080Y914400D02*
D03*
X490220D02*
D03*
D23*
X943610Y875850D02*
D03*
Y882350D02*
D03*
Y888850D02*
D03*
Y895350D02*
D03*
Y901850D02*
D03*
D24*
X945860Y856850D02*
D03*
Y920850D02*
D03*
M02*
