G04*
G04 #@! TF.GenerationSoftware,Altium Limited,Altium Designer,22.6.1 (34)*
G04*
G04 Layer_Color=16711935*
%FSLAX44Y44*%
%MOMM*%
G71*
G04*
G04 #@! TF.SameCoordinates,A72CB605-F9DB-4195-8002-294397CB98EC*
G04*
G04*
G04 #@! TF.FilePolarity,Negative*
G04*
G01*
G75*
%ADD26R,1.8542X1.7272*%
%ADD29R,1.6002X1.4732*%
%ADD30R,1.4732X1.6002*%
%ADD34C,2.1082*%
%ADD35C,1.7032*%
%ADD36R,1.7032X1.7032*%
G04:AMPARAMS|DCode=37|XSize=2.2032mm|YSize=1.4032mm|CornerRadius=0.4616mm|HoleSize=0mm|Usage=FLASHONLY|Rotation=180.000|XOffset=0mm|YOffset=0mm|HoleType=Round|Shape=RoundedRectangle|*
%AMROUNDEDRECTD37*
21,1,2.2032,0.4800,0,0,180.0*
21,1,1.2800,1.4032,0,0,180.0*
1,1,0.9232,-0.6400,0.2400*
1,1,0.9232,0.6400,0.2400*
1,1,0.9232,0.6400,-0.2400*
1,1,0.9232,-0.6400,-0.2400*
%
%ADD37ROUNDEDRECTD37*%
%ADD38R,1.7032X1.7032*%
%ADD39C,0.7112*%
%ADD52R,1.7272X1.8542*%
G04:AMPARAMS|DCode=53|XSize=0.8732mm|YSize=1.3732mm|CornerRadius=0.1418mm|HoleSize=0mm|Usage=FLASHONLY|Rotation=270.000|XOffset=0mm|YOffset=0mm|HoleType=Round|Shape=RoundedRectangle|*
%AMROUNDEDRECTD53*
21,1,0.8732,1.0896,0,0,270.0*
21,1,0.5896,1.3732,0,0,270.0*
1,1,0.2836,-0.5448,-0.2948*
1,1,0.2836,-0.5448,0.2948*
1,1,0.2836,0.5448,0.2948*
1,1,0.2836,0.5448,-0.2948*
%
%ADD53ROUNDEDRECTD53*%
%ADD54R,2.1032X1.3032*%
D26*
X881380Y996950D02*
D03*
Y963930D02*
D03*
X853440Y996950D02*
D03*
Y963930D02*
D03*
X913130Y995680D02*
D03*
Y962660D02*
D03*
X626110Y842010D02*
D03*
Y875030D02*
D03*
D29*
X916940Y817880D02*
D03*
Y795020D02*
D03*
X894080Y817880D02*
D03*
Y795020D02*
D03*
X730250Y819150D02*
D03*
Y796290D02*
D03*
X645160Y820420D02*
D03*
Y797560D02*
D03*
X596900Y820420D02*
D03*
Y797560D02*
D03*
X703580Y821690D02*
D03*
Y798830D02*
D03*
D30*
X704850Y1010920D02*
D03*
X727710D02*
D03*
X844550Y858520D02*
D03*
X867410D02*
D03*
X844550Y836930D02*
D03*
X867410D02*
D03*
X847090Y775970D02*
D03*
X869950D02*
D03*
D34*
X586740Y881380D02*
D03*
Y932180D02*
D03*
D35*
X882650Y911860D02*
D03*
Y886460D02*
D03*
X857250Y911860D02*
D03*
Y886460D02*
D03*
X831850Y911860D02*
D03*
X520700Y1041400D02*
D03*
X546100D02*
D03*
X571500D02*
D03*
X596900D02*
D03*
X622300D02*
D03*
X647700D02*
D03*
X673100D02*
D03*
X698500D02*
D03*
X723900D02*
D03*
X749300D02*
D03*
X774700D02*
D03*
X800100D02*
D03*
X825500D02*
D03*
X850900D02*
D03*
X876300D02*
D03*
X901700D02*
D03*
X927100D02*
D03*
X952500D02*
D03*
X977900D02*
D03*
X984250Y745490D02*
D03*
X958850D02*
D03*
X933450D02*
D03*
X908050D02*
D03*
X882650D02*
D03*
X857250D02*
D03*
X831850D02*
D03*
X806450D02*
D03*
X781050D02*
D03*
X755650D02*
D03*
X730250D02*
D03*
X704850D02*
D03*
X679450D02*
D03*
X654050D02*
D03*
X628650D02*
D03*
X603250D02*
D03*
X577850D02*
D03*
X552450D02*
D03*
X527050D02*
D03*
X463550Y886460D02*
D03*
Y861060D02*
D03*
Y835660D02*
D03*
D36*
X831850Y886460D02*
D03*
X495300Y1041400D02*
D03*
X501650Y745490D02*
D03*
D37*
X970360Y855850D02*
D03*
Y921850D02*
D03*
D38*
X463550Y911860D02*
D03*
D39*
X580390Y991870D02*
D03*
X527050Y774700D02*
D03*
X648970Y894080D02*
D03*
X690880Y852170D02*
D03*
X595630Y966470D02*
D03*
X740410Y1007110D02*
D03*
X735330Y976630D02*
D03*
X755650Y895350D02*
D03*
X727710Y877570D02*
D03*
Y938530D02*
D03*
X690880Y910590D02*
D03*
X916940Y853440D02*
D03*
X610870Y842010D02*
D03*
X626110Y894080D02*
D03*
X665480Y869950D02*
D03*
X656590Y843280D02*
D03*
X671830Y852170D02*
D03*
X882650Y933450D02*
D03*
X928370Y881380D02*
D03*
X916940Y909320D02*
D03*
X697230Y892810D02*
D03*
X750570Y905510D02*
D03*
X720090Y960120D02*
D03*
X711200Y885190D02*
D03*
X716280Y897890D02*
D03*
X704850Y909320D02*
D03*
X723900Y919480D02*
D03*
D52*
X735330Y976630D02*
D03*
X702310D02*
D03*
X792480Y844550D02*
D03*
X759460D02*
D03*
X754380Y909320D02*
D03*
X787400D02*
D03*
D53*
X870720Y817120D02*
D03*
Y807720D02*
D03*
Y798320D02*
D03*
X846320D02*
D03*
Y817120D02*
D03*
D54*
X673100Y797760D02*
D03*
Y822760D02*
D03*
M02*
