M48
;Layer_Color=9474304
;FILE_FORMAT=4:4
METRIC,LZ
;TYPE=PLATED
T1F00S00C0.2540
T3F00S00C0.8636
T4F00S00C0.9000
%
T01
X0052705Y007747
X0061087Y0084201
X0065659Y0084328
X0067183Y0085217
X0069088
X0066548Y0086995
X0064897Y0089408
X0062611
X0069723Y0089281
X007112Y0088519
X0071628Y0089789
X0070485Y0090932
X0069088Y0091059
X007239Y0091948
X0072771Y0093853
X0072009Y0096012
X0073533Y0097663
X0074041Y0100711
X0075057Y0090551
X0075565Y0089535
X0072771Y0087757
X0059563Y0096647
X0058039Y0099187
X0088265Y0093345
X0091694Y0090932
X0092837Y0088138
X0091694Y0085344
T03
X0058674Y0088138
Y0093218
T04
X0080645Y0074549
X0083185
X0085725
X0088265
X0090805
X0093345
X0095885
X0098425
X0078105
X0075565
X0073025
X0070485
X0067945
X0065405
X0062865
X0060325
X0057785
X0055245
X0052705
X0050165
X0046355Y0083566
Y0086106
Y0088646
Y0091186
X004953Y010414
X005207
X005461
X005715
X005969
X006223
X006477
X006731
X006985
X007239
X007493
X007747
X008001
X008255
X008509
X008763
X009017
X009271
X009525
X009779
X0088265Y0091186
Y0088646
X0085725
Y0091186
X0083185
Y0088646
M30
