G04*
G04 #@! TF.GenerationSoftware,Altium Limited,Altium Designer,22.6.1 (34)*
G04*
G04 Layer_Color=8388736*
%FSLAX44Y44*%
%MOMM*%
G71*
G04*
G04 #@! TF.SameCoordinates,A72CB605-F9DB-4195-8002-294397CB98EC*
G04*
G04*
G04 #@! TF.FilePolarity,Negative*
G04*
G01*
G75*
%ADD25R,1.2032X0.9032*%
%ADD26R,1.8542X1.7272*%
G04:AMPARAMS|DCode=27|XSize=0.4832mm|YSize=1.7632mm|CornerRadius=0.1716mm|HoleSize=0mm|Usage=FLASHONLY|Rotation=45.000|XOffset=0mm|YOffset=0mm|HoleType=Round|Shape=RoundedRectangle|*
%AMROUNDEDRECTD27*
21,1,0.4832,1.4200,0,0,45.0*
21,1,0.1400,1.7632,0,0,45.0*
1,1,0.3432,0.5515,-0.4526*
1,1,0.3432,0.4526,-0.5515*
1,1,0.3432,-0.5515,0.4526*
1,1,0.3432,-0.4526,0.5515*
%
%ADD27ROUNDEDRECTD27*%
G04:AMPARAMS|DCode=28|XSize=0.4832mm|YSize=1.7632mm|CornerRadius=0.1716mm|HoleSize=0mm|Usage=FLASHONLY|Rotation=135.000|XOffset=0mm|YOffset=0mm|HoleType=Round|Shape=RoundedRectangle|*
%AMROUNDEDRECTD28*
21,1,0.4832,1.4200,0,0,135.0*
21,1,0.1400,1.7632,0,0,135.0*
1,1,0.3432,0.4526,0.5515*
1,1,0.3432,0.5515,0.4526*
1,1,0.3432,-0.4526,-0.5515*
1,1,0.3432,-0.5515,-0.4526*
%
%ADD28ROUNDEDRECTD28*%
%ADD29R,1.6002X1.4732*%
%ADD30R,1.4732X1.6002*%
%ADD31R,2.1032X2.1032*%
%ADD32R,1.4500X0.5000*%
%ADD33R,1.6032X1.8032*%
%ADD34C,2.1082*%
%ADD35C,1.7032*%
%ADD36R,1.7032X1.7032*%
G04:AMPARAMS|DCode=37|XSize=2.2032mm|YSize=1.4032mm|CornerRadius=0.4616mm|HoleSize=0mm|Usage=FLASHONLY|Rotation=180.000|XOffset=0mm|YOffset=0mm|HoleType=Round|Shape=RoundedRectangle|*
%AMROUNDEDRECTD37*
21,1,2.2032,0.4800,0,0,180.0*
21,1,1.2800,1.4032,0,0,180.0*
1,1,0.9232,-0.6400,0.2400*
1,1,0.9232,0.6400,0.2400*
1,1,0.9232,0.6400,-0.2400*
1,1,0.9232,-0.6400,-0.2400*
%
%ADD37ROUNDEDRECTD37*%
%ADD38R,1.7032X1.7032*%
%ADD39C,0.7112*%
D25*
X690090Y1012910D02*
D03*
X750090D02*
D03*
X690090Y975910D02*
D03*
X750090D02*
D03*
D26*
X509524Y960120D02*
D03*
Y993140D02*
D03*
X526796Y824230D02*
D03*
Y791210D02*
D03*
D27*
X674898Y913082D02*
D03*
X678433Y916617D02*
D03*
X681969Y920153D02*
D03*
X685504Y923688D02*
D03*
X689040Y927224D02*
D03*
X692575Y930759D02*
D03*
X696111Y934295D02*
D03*
X699646Y937830D02*
D03*
X703182Y941366D02*
D03*
X706717Y944901D02*
D03*
X710253Y948437D02*
D03*
X713788Y951973D02*
D03*
X772903Y892858D02*
D03*
X769367Y889323D02*
D03*
X765831Y885787D02*
D03*
X762296Y882252D02*
D03*
X758760Y878716D02*
D03*
X755225Y875181D02*
D03*
X751689Y871645D02*
D03*
X748154Y868110D02*
D03*
X744618Y864574D02*
D03*
X741083Y861039D02*
D03*
X737547Y857503D02*
D03*
X734012Y853968D02*
D03*
D28*
Y951973D02*
D03*
X737547Y948437D02*
D03*
X741083Y944901D02*
D03*
X744618Y941366D02*
D03*
X748154Y937830D02*
D03*
X751689Y934295D02*
D03*
X755225Y930759D02*
D03*
X758760Y927224D02*
D03*
X762296Y923688D02*
D03*
X765831Y920153D02*
D03*
X769367Y916617D02*
D03*
X772903Y913082D02*
D03*
X713788Y853968D02*
D03*
X710253Y857503D02*
D03*
X706717Y861039D02*
D03*
X703182Y864574D02*
D03*
X699646Y868110D02*
D03*
X696111Y871645D02*
D03*
X692575Y875181D02*
D03*
X689040Y878716D02*
D03*
X685504Y882252D02*
D03*
X681969Y885787D02*
D03*
X678433Y889323D02*
D03*
X674898Y892858D02*
D03*
D29*
X542290Y942340D02*
D03*
Y965200D02*
D03*
X525780Y868680D02*
D03*
Y845820D02*
D03*
D30*
X513080Y914400D02*
D03*
X490220D02*
D03*
D31*
X970360Y876850D02*
D03*
Y900850D02*
D03*
D32*
X943610Y875850D02*
D03*
Y882350D02*
D03*
Y888850D02*
D03*
Y895350D02*
D03*
Y901850D02*
D03*
D33*
X945860Y856850D02*
D03*
Y920850D02*
D03*
D34*
X586740Y881380D02*
D03*
Y932180D02*
D03*
D35*
X882650Y911860D02*
D03*
Y886460D02*
D03*
X857250Y911860D02*
D03*
Y886460D02*
D03*
X831850Y911860D02*
D03*
X520700Y1041400D02*
D03*
X546100D02*
D03*
X571500D02*
D03*
X596900D02*
D03*
X622300D02*
D03*
X647700D02*
D03*
X673100D02*
D03*
X698500D02*
D03*
X723900D02*
D03*
X749300D02*
D03*
X774700D02*
D03*
X800100D02*
D03*
X825500D02*
D03*
X850900D02*
D03*
X876300D02*
D03*
X901700D02*
D03*
X927100D02*
D03*
X952500D02*
D03*
X977900D02*
D03*
X984250Y745490D02*
D03*
X958850D02*
D03*
X933450D02*
D03*
X908050D02*
D03*
X882650D02*
D03*
X857250D02*
D03*
X831850D02*
D03*
X806450D02*
D03*
X781050D02*
D03*
X755650D02*
D03*
X730250D02*
D03*
X704850D02*
D03*
X679450D02*
D03*
X654050D02*
D03*
X628650D02*
D03*
X603250D02*
D03*
X577850D02*
D03*
X552450D02*
D03*
X527050D02*
D03*
X463550Y886460D02*
D03*
Y861060D02*
D03*
Y835660D02*
D03*
D36*
X831850Y886460D02*
D03*
X495300Y1041400D02*
D03*
X501650Y745490D02*
D03*
D37*
X970360Y855850D02*
D03*
Y921850D02*
D03*
D38*
X463550Y911860D02*
D03*
D39*
X580390Y991870D02*
D03*
X527050Y774700D02*
D03*
X648970Y894080D02*
D03*
X690880Y852170D02*
D03*
X595630Y966470D02*
D03*
X740410Y1007110D02*
D03*
X735330Y976630D02*
D03*
X755650Y895350D02*
D03*
X727710Y877570D02*
D03*
Y938530D02*
D03*
X690880Y910590D02*
D03*
X916940Y853440D02*
D03*
X610870Y842010D02*
D03*
X626110Y894080D02*
D03*
X665480Y869950D02*
D03*
X656590Y843280D02*
D03*
X671830Y852170D02*
D03*
X882650Y933450D02*
D03*
X928370Y881380D02*
D03*
X916940Y909320D02*
D03*
X697230Y892810D02*
D03*
X750570Y905510D02*
D03*
X720090Y960120D02*
D03*
X711200Y885190D02*
D03*
X716280Y897890D02*
D03*
X704850Y909320D02*
D03*
X723900Y919480D02*
D03*
M02*
