G04*
G04 #@! TF.GenerationSoftware,Altium Limited,Altium Designer,22.6.1 (34)*
G04*
G04 Layer_Color=32768*
%FSLAX44Y44*%
%MOMM*%
G71*
G04*
G04 #@! TF.SameCoordinates,A72CB605-F9DB-4195-8002-294397CB98EC*
G04*
G04*
G04 #@! TF.FilePolarity,Positive*
G04*
G01*
G75*
%ADD56C,0.0500*%
G36*
X746090Y968396D02*
X695077D01*
Y1020410D01*
X746090D01*
Y968396D01*
D02*
G37*
D56*
X664857Y888333D02*
X709263Y843927D01*
X718879Y853543D01*
X723900Y848523D01*
X728921Y853543D01*
X738537Y843927D01*
X782943Y888333D01*
X773327Y897950D02*
X782943Y888333D01*
X773327Y897950D02*
X778347Y902970D01*
X773327Y907990D02*
X778347Y902970D01*
X773327Y907990D02*
X782943Y917607D01*
X738537Y962013D02*
X782943Y917607D01*
X728921Y952397D02*
X738537Y962013D01*
X723900Y957417D02*
X728921Y952397D01*
X718879D02*
X723900Y957417D01*
X709263Y962013D02*
X718879Y952397D01*
X664857Y917607D02*
X709263Y962013D01*
X664857Y917607D02*
X674473Y907990D01*
X669453Y902970D02*
X674473Y907990D01*
X669453Y902970D02*
X674473Y897950D01*
X664857Y888333D02*
X674473Y897950D01*
X878520Y790220D02*
Y825220D01*
X838520Y790220D02*
X878520D01*
X838520D02*
Y825220D01*
X878520D01*
X661100Y789760D02*
X685100D01*
X661100D02*
Y830760D01*
X685100D01*
Y789760D02*
Y830760D01*
M02*
